<?xml version="1.0" encoding="utf-8"?>
<!-- Generator: Adobe Illustrator 21.0.2, SVG Export Plug-In . SVG Version: 6.00 Build 0)  -->
<svg version="1.1" xmlns="http://www.w3.org/2000/svg" xmlns:xlink="http://www.w3.org/1999/xlink" x="0px" y="0px"
	 viewBox="0 0 79.5 50.5" style="enable-background:new 0 0 79.5 50.5;" xml:space="preserve">
<style type="text/css">
	.st0{fill:#E5312E;}
	.st1{fill:#565657;stroke:#FFFFFF;stroke-linejoin:round;stroke-miterlimit:10;}
	.st2{enable-background:new    ;}
	.st3{fill:#565657;}
	.st4{fill:#E4322F;}
</style>
<g id="Calque_1">
	<g>
		<g>
			<g>
				<path class="st0" d="M50.6,13.3c0.3-0.5,0.6-1,0.8-1.6c0.2,0.5,0.6,1,0.9,1.5c-0.3,0.3-0.6,0.7-0.9,1.1
					C51.2,14,50.9,13.6,50.6,13.3z"/>
				<path class="st0" d="M62.6,21.1c-0.4,0.7-0.8,1.4-2.2,1.8c-1.8,0.6-3.7,1.3-4.3,1.5c-0.1-0.3-0.3-0.5-0.5-0.7l3.6-7.2
					c0.4,0.2,0.8,0.4,1.3,0.5c0.6,0.2,1.3,0.4,1.9,0.9c0.5,0.4,0.7,1,0.8,1.3c0.1,0.5,0,1-0.2,1.2C62.8,20.7,62.7,20.9,62.6,21.1z"
					/>
				<path class="st0" d="M52.4,21.7c0-1.3,0-4.3-0.1-5.2c0-0.6,1.1-2.5,2.5-2.9c0.9-0.3,1.7,0,2.5,1c0.1,0.2,0.3,0.3,0.4,0.5
					c0.3,0.4,0.6,0.8,1.1,1.2L53.3,22C53,21.9,52.7,21.8,52.4,21.7z"/>
				<g>
					<path class="st0" d="M49,41.9c0.2-0.1,0.4-0.1,0.7-0.2c0.4-0.1,0.8-0.3,1.3-0.3h0.1l0,0c0.2,0,0.6,0.1,1.1,0.2
						c0.7,0.2,1.6,0.5,2.6,0.5c1.3,0,2.4-0.8,3.1-1.8c2.7,0.4,4.1,1.8,4.1,1.8l1.3-1.1c0,0-1.2-1.6-1.6-3.5c0.5,0,1.1-0.2,1.6-0.4
						c0.9-0.5,1.5-1.2,1.8-2.1c0.3-1,0.3-1.9,0.3-2.6c0-0.4,0-0.9,0.1-1.1l0,0v-0.1c0.1-0.4,0.4-0.7,0.7-1.1
						c0.1-0.2,0.3-0.4,0.4-0.6c1-1.6,1-3.2,0.1-4.5c-0.1-0.1-0.1-0.2-0.2-0.3c1.4-2,3.1-2.6,3.1-2.6L69,20.5c0,0-2.3,0.5-4.2-0.2
						c0.1-0.4,0.1-0.9,0-1.3c-0.2-1-0.7-1.8-1.4-2.4c-0.8-0.6-1.7-0.9-2.4-1.1c-0.4-0.1-0.8-0.3-1-0.4l0,0L59.9,15
						c-0.3-0.3-0.6-0.6-0.9-1c-0.1-0.2-0.3-0.4-0.4-0.6c-0.9-1.1-2-1.7-3.1-1.7c-0.4,0-0.7,0.1-1.1,0.2c-0.2,0.1-0.4,0.2-0.6,0.3
						c-1.4-1.9-1.6-3.7-1.6-3.7h-1.7c0,0-0.2,2.1-1.2,3.7c-0.2-0.1-0.4-0.2-0.7-0.3c-0.4-0.1-0.7-0.2-1.1-0.2h-0.1V4H76v43H47.4v-5
						C47.9,42.1,48.5,42,49,41.9z"/>
				</g>
				<path class="st0" d="M48.1,13.6c1.4,0.4,2.5,2.4,2.5,2.9c0,0.8-0.1,3.8-0.1,5.1c-0.4,0-0.7,0.1-1.1,0.2l-2.1-2.2v-6.1
					C47.6,13.5,47.9,13.6,48.1,13.6z"/>
				<path class="st0" d="M49.4,32.3l1,7.4c-0.6,0.1-1.1,0.2-1.6,0.4c-0.2,0.1-0.4,0.1-0.6,0.2c-0.4,0.1-0.8,0.2-1.2,0.1v-7.1
					c0.4-0.6,0.8-1.2,1.1-1.6C48.6,32,49,32.1,49.4,32.3z"/>
				<path class="st0" d="M53.6,31.9c0.5,0.8,1.4,2.1,2.3,3.2c0.9,1.2,0.8,1.9,0.8,2.8c0,0.2,0,0.5,0,0.7c0,0.7-0.9,1.7-1.9,1.7
					c-0.8,0-1.5-0.2-2.1-0.4c-0.5-0.1-0.9-0.3-1.3-0.3l1.1-7.3C52.8,32.3,53.3,32.1,53.6,31.9z"/>
				<path class="st0" d="M55.9,29.9l7.8,1.2c-0.1,0.4-0.1,0.9-0.1,1.4c0,0.6,0,1.4-0.2,2.1c-0.2,0.6-0.7,1-1,1.1
					c-0.4,0.2-0.9,0.3-1.2,0.2c-0.2-0.1-0.5-0.1-0.7-0.2c-0.8-0.2-1.6-0.4-2.4-1.5c-1-1.4-2.2-2.9-2.7-3.5
					C55.5,30.4,55.7,30.1,55.9,29.9z"/>
				<path class="st0" d="M63.4,23c0.3-0.3,0.5-0.7,0.7-1c0-0.1,0.1-0.1,0.1-0.1c0.7,0.3,1.5,0.4,2.1,0.5c-0.4,0.4-0.8,0.8-1.2,1.4
					C64.5,23.4,63.9,23.1,63.4,23z"/>
				<circle class="st0" cx="51.3" cy="27.1" r="3.8"/>
				<path class="st0" d="M56.7,27.1c0-0.3,0-0.6-0.1-0.9c1.2-0.4,4.2-1.4,5-1.7c0.6-0.2,2.7,0.3,3.6,1.5c0.5,0.8,0.5,1.6-0.1,2.6
					c-0.1,0.2-0.2,0.3-0.3,0.5c-0.3,0.4-0.6,0.8-0.8,1.4L56.7,27.1L56.7,27.1z"/>
				<path class="st0" d="M58.4,38.1c0-0.4,0.1-0.9,0-1.4c0.5,0.3,1,0.4,1.5,0.6c0.1,0.7,0.3,1.4,0.5,2c-0.6-0.2-1.3-0.4-2-0.6l0,0
					C58.3,38.5,58.3,38.3,58.4,38.1z"/>
			</g>
		</g>
	</g>
	<g>
		<path class="st1" d="M19.9,14.6c-3,9.5-1.3,14.6,15.9,11.5c0.4-0.1,0.7-0.4,0.7-0.8l0-7.3l14.2,9.5L36.5,39l0-6.6
			c0-0.2-0.2-0.3-0.4-0.3C15.3,36.9,4.7,34.2,19.9,14.6z"/>
	</g>
	<g class="st2">
		<path class="st3" d="M14.2,7.9c-0.6-0.3-1.1-0.5-1.7-0.5c-0.6,0-1.2,0.2-1.7,0.5c-0.5,0.3-0.9,0.8-1.2,1.3
			c-0.3,0.6-0.5,1.2-0.5,1.9s0.1,1.3,0.5,1.9c0.3,0.6,0.7,1,1.2,1.3c0.5,0.3,1.1,0.5,1.7,0.5c0.5,0,1.1-0.1,1.6-0.4
			c0.6-0.3,1.1-0.6,1.5-1.1l1.9,2.1c-0.7,0.7-1.5,1.3-2.4,1.7s-1.9,0.6-2.8,0.6c-1.2,0-2.4-0.3-3.4-0.9c-1-0.6-1.8-1.4-2.4-2.4
			c-0.6-1-0.9-2.1-0.9-3.3c0-1.2,0.3-2.3,0.9-3.3c0.6-1,1.4-1.8,2.4-2.3c1-0.6,2.2-0.8,3.4-0.8c0.9,0,1.9,0.2,2.8,0.6
			c0.9,0.4,1.7,0.9,2.3,1.6l-1.9,2.3C15.3,8.7,14.8,8.2,14.2,7.9z"/>
		<path class="st3" d="M28.2,8.6c0.7,0.6,1.1,1.5,1.1,2.6v6.3h-3.1v-1.1c-0.6,0.8-1.6,1.2-2.9,1.2c-1,0-1.8-0.3-2.4-0.8
			c-0.6-0.6-0.9-1.3-0.9-2.2c0-0.9,0.3-1.6,1-2.2c0.6-0.5,1.6-0.8,2.8-0.8h2.5v-0.1c0-0.5-0.2-0.8-0.5-1.1s-0.8-0.4-1.4-0.4
			c-0.4,0-0.9,0.1-1.4,0.2c-0.5,0.1-1,0.3-1.5,0.6l-0.9-2.2c0.8-0.4,1.6-0.6,2.3-0.8c0.7-0.2,1.5-0.3,2.3-0.3
			C26.4,7.6,27.5,7.9,28.2,8.6z M25.5,15.1c0.4-0.2,0.6-0.5,0.7-0.9v-0.8h-1.9c-0.9,0-1.4,0.3-1.4,1c0,0.3,0.1,0.6,0.4,0.8
			c0.2,0.2,0.6,0.3,1,0.3C24.7,15.5,25.2,15.3,25.5,15.1z"/>
		<path class="st3" d="M36.7,9.8c-0.3,0-0.5,0.1-0.7,0.2c-0.2,0.1-0.3,0.3-0.3,0.5c0,0.2,0.1,0.4,0.4,0.5c0.3,0.1,0.7,0.3,1.3,0.4
			c0.7,0.2,1.3,0.4,1.7,0.6c0.5,0.2,0.9,0.5,1.2,0.9c0.3,0.4,0.5,0.9,0.5,1.6c0,1-0.4,1.8-1.1,2.3c-0.8,0.6-1.8,0.8-3,0.8
			c-0.8,0-1.6-0.1-2.4-0.4c-0.8-0.2-1.4-0.6-2-1l1-2.1c0.6,0.4,1.1,0.7,1.7,0.9c0.6,0.2,1.2,0.3,1.7,0.3c0.3,0,0.6-0.1,0.7-0.2
			s0.3-0.2,0.3-0.4c0-0.2-0.1-0.4-0.4-0.6s-0.7-0.3-1.3-0.4c-0.7-0.2-1.2-0.4-1.7-0.6c-0.4-0.2-0.8-0.5-1.2-0.9
			c-0.3-0.4-0.5-0.9-0.5-1.5c0-1,0.4-1.8,1.1-2.3c0.7-0.6,1.7-0.8,2.9-0.8c0.7,0,1.4,0.1,2.1,0.3c0.7,0.2,1.3,0.5,2,0.8l-1.1,2.1
			C38.6,10.2,37.5,9.8,36.7,9.8z"/>
	</g>
	<g class="st2">
		<path class="st4" d="M9.3,44.4c0.4,0.4,0.8,0.6,1.4,0.6c0.6,0,1-0.2,1.4-0.6c0.3-0.4,0.5-0.9,0.5-1.5v-5.8h2.6V43
			c0,0.8-0.2,1.6-0.5,2.2c-0.4,0.6-0.9,1.1-1.6,1.5c-0.7,0.3-1.5,0.5-2.4,0.5S9,47,8.3,46.7c-0.7-0.3-1.2-0.8-1.6-1.5
			c-0.4-0.6-0.6-1.4-0.6-2.2v-5.8h2.6V43C8.7,43.6,8.9,44.1,9.3,44.4z"/>
		<path class="st4" d="M24.9,42h2.2v3.9c-0.5,0.4-1.2,0.7-1.9,0.9s-1.5,0.4-2.2,0.4c-1,0-1.9-0.2-2.7-0.7c-0.8-0.4-1.4-1.1-1.9-1.8
			c-0.5-0.8-0.7-1.6-0.7-2.6c0-1,0.2-1.8,0.7-2.6c0.5-0.8,1.1-1.4,2-1.8c0.8-0.4,1.8-0.7,2.8-0.7c0.7,0,1.5,0.1,2.2,0.4
			c0.7,0.3,1.4,0.6,1.9,1.1l-1.5,1.8c-0.4-0.3-0.8-0.6-1.2-0.8c-0.5-0.2-0.9-0.3-1.4-0.3c-0.5,0-1,0.1-1.4,0.4s-0.8,0.6-1,1
			s-0.4,0.9-0.4,1.5c0,0.6,0.1,1,0.4,1.5s0.6,0.8,1,1s0.9,0.4,1.4,0.4c0.5,0,1.1-0.2,1.7-0.5V42z"/>
		<path class="st4" d="M37.6,47l-0.7-1.7h-4.3L31.9,47h-2.7l4.3-9.8h2.7l4.2,9.8H37.6z M33.4,43.3h2.7l-1.4-3.5L33.4,43.3z"/>
	</g>
</g>
<g id="Calque_2">
</g>
</svg>
