<?xml version="1.0" encoding="utf-8"?>
<!-- Generator: Adobe Illustrator 13.0.0, SVG Export Plug-In . SVG Version: 6.00 Build 14948)  -->
<!DOCTYPE svg PUBLIC "-//W3C//DTD SVG 1.1//EN" "http://www.w3.org/Graphics/SVG/1.1/DTD/svg11.dtd">
<svg version="1.1" id="Layer_1" xmlns="http://www.w3.org/2000/svg" xmlns:xlink="http://www.w3.org/1999/xlink" x="0px" y="0px"
	 width="48px" height="48px" viewBox="0 0 48 48" enable-background="new 0 0 48 48" xml:space="preserve">
<g>
	<path fill="#333333" d="M9.756,3.169l0.416,35.997l35.998-0.415L45.753,2.753L9.756,3.169z M43.938,18.775L43.938,18.775l0.011,1
		l0,0l0.093,7.999l0,0l0.012,1l0,0l0.092,8l0,0l-9.999,0.115l-1,0.012l-9.999,0.115l-1,0.012l-10,0.115l0,0l-0.3-25.999l0,0
		l10-0.115l1-0.012l10-0.115l1-0.012l9.999-0.115l0,0L43.938,18.775z"/>
	<path fill="#666666" d="M33.847,10.891l-1,0.012l0.092,8l-9.999,0.115l-0.092-8l-1,0.012l0.092,8l-9.999,0.115l-0.093-8l0,0
		l0.3,25.999l0,0l-0.092-8l10-0.115l0.092,8l1-0.012l-0.093-8l10-0.115l0.092,8l1-0.012l-0.092-8l9.999-0.115l-0.012-1l-9.999,0.115
		l-0.093-7.999l9.999-0.115l-0.011-1l-10,0.115L33.847,10.891z M22.043,28.028l-10,0.116l-0.092-8l10-0.115L22.043,28.028z
		 M33.043,27.901l-10,0.115l-0.092-7.999l9.999-0.115L33.043,27.901z"/>
	
		<rect x="12.101" y="29.086" transform="matrix(-0.9999 0.0115 -0.0115 -0.9999 34.5832 65.9726)" fill="#FFFFFF" width="10" height="8.001"/>
	
		<rect x="11.997" y="20.087" transform="matrix(-0.9999 0.0115 -0.0115 -0.9999 34.2715 47.9754)" fill="#FFFFFF" width="10" height="8"/>
	
		<rect x="11.893" y="11.087" transform="matrix(-0.9999 0.0115 -0.0115 -0.9999 33.9598 29.9786)" fill="#FFFFFF" width="10" height="8"/>
	
		<rect x="23.1" y="28.959" transform="matrix(-0.9999 0.0115 -0.0115 -0.9999 56.5791 65.592)" fill="#FFFFFF" width="10.001" height="8.001"/>
	
		<rect x="22.997" y="19.96" transform="matrix(-0.9999 0.0115 -0.0115 -0.9999 56.2684 47.5947)" fill="#FFFFFF" width="10" height="8"/>
	
		<rect x="22.893" y="10.96" transform="matrix(-0.9999 0.0115 -0.0115 -0.9999 55.9562 29.598)" fill="#FFFFFF" width="10" height="8"/>
	<rect x="44.1" y="28.774" fill="#FFFFFF" width="0" height="8.001"/>
	
		<rect x="34.1" y="28.832" transform="matrix(-0.9999 0.0115 -0.0115 -0.9999 78.576 65.2113)" fill="#FFFFFF" width="10" height="8.001"/>
	<rect x="43.996" y="19.775" fill="#FFFFFF" width="0" height="8"/>
	
		<rect x="33.996" y="19.833" transform="matrix(-0.9999 0.0115 -0.0115 -0.9999 78.2642 47.2141)" fill="#FFFFFF" width="10" height="8"/>
	<rect x="43.892" y="10.776" fill="#FFFFFF" width="0" height="8"/>
	
		<rect x="33.893" y="10.833" transform="matrix(-0.9999 0.0115 -0.0115 -0.9999 77.9535 29.2173)" fill="#FFFFFF" width="10" height="8"/>
</g>
<g>
	<path fill="#333333" d="M7.779,5.192l0.416,35.998l35.998-0.416L43.776,4.776L7.779,5.192z M41.961,20.798L41.961,20.798l0.012,1
		l0,0l0.093,8l0,0l0.012,1l0,0l0.092,7.999l0,0l-9.999,0.115l-1,0.012l-10,0.115l-1,0.012l-9.999,0.115l0,0l-0.3-25.998l0,0
		l10-0.115l1-0.012l10-0.115l0.999-0.012l10-0.115l0,0L41.961,20.798z"/>
	<path fill="#666666" d="M31.869,12.914l-0.999,0.012l0.092,8l-9.999,0.115l-0.093-8l-1,0.012l0.092,8l-10,0.115l-0.092-8l0,0
		l0.3,25.998l0,0l-0.092-7.999l9.999-0.115l0.092,7.999l1-0.012l-0.092-7.999l9.999-0.115l0.093,7.999l1-0.012l-0.093-7.999
		l10-0.115l-0.012-1l-10,0.115l-0.092-7.999l9.999-0.116l-0.012-1l-9.999,0.115L31.869,12.914z M20.067,30.052l-10,0.115
		l-0.092-7.999l9.999-0.116L20.067,30.052z M31.066,29.925l-10,0.115l-0.092-7.999l10-0.116L31.066,29.925z"/>
	
		<rect x="10.125" y="31.109" transform="matrix(-0.9999 0.0115 -0.0115 -0.9999 30.6531 70.0411)" fill="#FFFFFF" width="10" height="8"/>
	
		<rect x="10.021" y="22.11" transform="matrix(-0.9999 0.0116 -0.0116 -0.9999 30.3444 52.0434)" fill="#FFFFFF" width="10" height="8.001"/>
	
		<rect x="9.917" y="13.11" transform="matrix(-0.9999 0.0115 -0.0115 -0.9999 30.0302 34.0472)" fill="#FFFFFF" width="10" height="8"/>
	
		<rect x="21.124" y="30.982" transform="matrix(-0.9999 0.0115 -0.0115 -0.9999 52.6494 69.6605)" fill="#FFFFFF" width="10" height="8"/>
	
		<rect x="21.02" y="21.983" transform="matrix(-0.9999 0.0116 -0.0116 -0.9999 52.3407 51.6617)" fill="#FFFFFF" width="10" height="8.001"/>
	
		<rect x="20.916" y="12.983" transform="matrix(-0.9999 0.0115 -0.0115 -0.9999 52.026 33.6666)" fill="#FFFFFF" width="10.001" height="8"/>
	<rect x="42.123" y="30.798" fill="#FFFFFF" width="0" height="8"/>
	
		<rect x="32.123" y="30.855" transform="matrix(-0.9999 0.0115 -0.0115 -0.9999 74.6452 69.2799)" fill="#FFFFFF" width="10.001" height="8"/>
	<rect x="42.019" y="21.798" fill="#FFFFFF" width="0" height="8.001"/>
	
		<rect x="32.02" y="21.856" transform="matrix(-0.9999 0.0116 -0.0116 -0.9999 74.337 51.28)" fill="#FFFFFF" width="10" height="8.001"/>
	<rect x="41.915" y="12.799" fill="#FFFFFF" width="0" height="8"/>
	
		<rect x="31.915" y="12.856" transform="matrix(-0.9999 0.0115 -0.0115 -0.9999 74.0219 33.2859)" fill="#FFFFFF" width="10.001" height="8"/>
</g>
<g>
	<path fill="#333333" d="M5.558,7.718l0.416,35.997L41.971,43.3L41.556,7.302L5.558,7.718z M39.74,23.324L39.74,23.324l0.012,1l0,0
		l0.092,7.999l0,0l0.012,1l0,0l0.093,8l0,0l-9.999,0.115l-1,0.012l-10,0.115l-1,0.012l-10,0.115l0,0l-0.3-25.999l0,0l10-0.115
		l1-0.012l9.999-0.115l1-0.012l10-0.115l0,0L39.74,23.324z"/>
	<path fill="#666666" d="M29.648,15.44l-1,0.012l0.093,8l-10,0.115l-0.092-8l-1,0.012l0.092,8l-9.999,0.115l-0.093-8l0,0l0.3,25.999
		l0,0l-0.092-8l10-0.115l0.092,8l1-0.012l-0.092-8l9.999-0.115l0.093,8l1-0.012l-0.093-8l9.999-0.115l-0.012-1l-9.999,0.115
		l-0.093-7.999l10-0.115l-0.012-1l-9.999,0.115L29.648,15.44z M17.846,32.577l-10,0.115l-0.092-7.999l10-0.115L17.846,32.577z
		 M28.845,32.45l-9.999,0.115l-0.092-7.999l9.999-0.115L28.845,32.45z"/>
	
		<rect x="7.904" y="33.634" transform="matrix(-0.9999 0.0115 -0.0115 -0.9999 26.2404 75.1183)" fill="#FFFFFF" width="10" height="8.001"/>
	
		<rect x="7.8" y="24.635" transform="matrix(-0.9999 0.0115 -0.0115 -0.9999 25.9287 57.1211)" fill="#FFFFFF" width="10" height="8"/>
	
		<rect x="7.696" y="15.636" transform="matrix(-0.9999 0.0115 -0.0115 -0.9999 25.617 39.1244)" fill="#FFFFFF" width="10" height="8"/>
	
		<rect x="18.903" y="33.508" transform="matrix(-0.9999 0.0115 -0.0115 -0.9999 48.2373 74.7377)" fill="#FFFFFF" width="10" height="8.001"/>
	
		<rect x="18.799" y="24.509" transform="matrix(-0.9999 0.0115 -0.0115 -0.9999 47.9251 56.7404)" fill="#FFFFFF" width="9.999" height="8"/>
	
		<rect x="18.695" y="15.509" transform="matrix(-0.9999 0.0115 -0.0115 -0.9999 47.6139 38.7437)" fill="#FFFFFF" width="10" height="8"/>
	<rect x="39.902" y="33.323" fill="#FFFFFF" width="0" height="8.001"/>
	
		<rect x="29.903" y="33.381" transform="matrix(-0.9999 0.0115 -0.0115 -0.9999 70.2331 74.357)" fill="#FFFFFF" width="10" height="8.001"/>
	<rect x="39.798" y="24.324" fill="#FFFFFF" width="0" height="8"/>
	
		<rect x="29.798" y="24.382" transform="matrix(-0.9999 0.0115 -0.0115 -0.9999 69.9204 56.3598)" fill="#FFFFFF" width="10.001" height="8"/>
	<rect x="39.694" y="15.324" fill="#FFFFFF" width="0" height="8"/>
	
		<rect x="29.694" y="15.382" transform="matrix(-0.9999 0.0115 -0.0115 -0.9999 69.6097 38.3631)" fill="#FFFFFF" width="10.001" height="8"/>
</g>
<g>
	<path fill="#333333" d="M2.831,9.749l0.416,35.998l35.998-0.416L38.829,9.333L2.831,9.749z M37.014,25.355L37.014,25.355l0.012,1
		l0,0l0.092,8l0,0l0.012,0.999l0,0l0.093,8l0,0l-9.999,0.115l-1,0.012l-10,0.115l-1,0.012l-9.999,0.115l0,0l-0.3-25.998l0,0
		l10-0.115l1-0.012l9.999-0.116l1-0.011l9.999-0.116l0,0L37.014,25.355z"/>
	<path fill="#666666" d="M26.922,17.472l-1,0.011l0.092,8l-9.999,0.115l-0.092-7.999l-1,0.012l0.092,7.999l-10,0.115l-0.092-7.999
		l0,0l0.3,25.998l0,0l-0.092-7.999l9.999-0.115l0.092,7.999l1-0.012l-0.092-7.999l10-0.116l0.093,8l1-0.012l-0.093-7.999
		l9.999-0.116l-0.012-0.999l-9.999,0.115l-0.093-8l10-0.115l-0.012-1l-10,0.115L26.922,17.472z M15.119,34.609l-10,0.115l-0.092-8
		l9.999-0.115L15.119,34.609z M26.118,34.482l-9.999,0.115l-0.093-8l9.999-0.115L26.118,34.482z"/>
	
		<rect x="5.177" y="35.667" transform="matrix(-0.9999 0.0115 -0.0115 -0.9999 20.8104 79.2131)" fill="#FFFFFF" width="10" height="8"/>
	
		<rect x="5.073" y="26.667" transform="matrix(-0.9999 0.0115 -0.0115 -0.9999 20.4992 61.2159)" fill="#FFFFFF" width="10" height="8.001"/>
	
		<rect x="4.969" y="17.668" transform="matrix(-0.9999 0.0115 -0.0115 -0.9999 20.1875 43.2186)" fill="#FFFFFF" width="10" height="8"/>
	
		<rect x="16.176" y="35.539" transform="matrix(-0.9999 0.0116 -0.0116 -0.9999 42.8111 78.8303)" fill="#FFFFFF" width="10" height="8.001"/>
	
		<rect x="16.072" y="26.54" transform="matrix(-0.9999 0.0115 -0.0115 -0.9999 42.4951 60.8352)" fill="#FFFFFF" width="10" height="8.001"/>
	
		<rect x="15.968" y="17.541" transform="matrix(-0.9999 0.0116 -0.0116 -0.9999 42.1844 42.837)" fill="#FFFFFF" width="10" height="8"/>
	<rect x="37.175" y="35.354" fill="#FFFFFF" width="0" height="8.001"/>
	
		<rect x="27.176" y="35.412" transform="matrix(-0.9999 0.0116 -0.0116 -0.9999 64.8074 78.4486)" fill="#FFFFFF" width="10" height="8.001"/>
	<rect x="37.071" y="26.355" fill="#FFFFFF" width="0" height="8.001"/>
	
		<rect x="27.071" y="26.413" transform="matrix(-0.9999 0.0115 -0.0115 -0.9999 64.4909 60.4546)" fill="#FFFFFF" width="10.001" height="8.001"/>
	<rect x="36.967" y="17.356" fill="#FFFFFF" width="0" height="8"/>
	
		<rect x="26.968" y="17.414" transform="matrix(-0.9999 0.0116 -0.0116 -0.9999 64.1812 42.4558)" fill="#FFFFFF" width="10" height="8"/>
</g>

<rect style="fill:#00a6ff; fill-opacity:0.7;" x="0" y="42 " width="48" height="6" />
</svg>
