<?xml version="1.0" encoding="UTF-8" standalone="no"?>
<!-- Generator: Adobe Illustrator 13.0.0, SVG Export Plug-In . SVG Version: 6.00 Build 14948)  -->

<svg
   xmlns:dc="http://purl.org/dc/elements/1.1/"
   xmlns:cc="http://creativecommons.org/ns#"
   xmlns:rdf="http://www.w3.org/1999/02/22-rdf-syntax-ns#"
   xmlns:svg="http://www.w3.org/2000/svg"
   xmlns="http://www.w3.org/2000/svg"
   xmlns:sodipodi="http://sodipodi.sourceforge.net/DTD/sodipodi-0.dtd"
   xmlns:inkscape="http://www.inkscape.org/namespaces/inkscape"
   version="1.1"
   id="Layer_1"
   x="0px"
   y="0px"
   width="48px"
   height="48px"
   viewBox="0 0 48 48"
   enable-background="new 0 0 48 48"
   xml:space="preserve"
   inkscape:version="0.47 r22583"
   sodipodi:docname="UTCast.svg"><metadata
   id="metadata127"><rdf:RDF><cc:Work
       rdf:about=""><dc:format>image/svg+xml</dc:format><dc:type
         rdf:resource="http://purl.org/dc/dcmitype/StillImage" /></cc:Work></rdf:RDF></metadata><defs
   id="defs125"><inkscape:perspective
     sodipodi:type="inkscape:persp3d"
     inkscape:vp_x="0 : 24 : 1"
     inkscape:vp_y="0 : 1000 : 0"
     inkscape:vp_z="48 : 24 : 1"
     inkscape:persp3d-origin="24 : 16 : 1"
     id="perspective129" /></defs><sodipodi:namedview
   pagecolor="#ffffff"
   bordercolor="#666666"
   borderopacity="1"
   objecttolerance="10"
   gridtolerance="10"
   guidetolerance="10"
   inkscape:pageopacity="0"
   inkscape:pageshadow="2"
   inkscape:window-width="1122"
   inkscape:window-height="1021"
   id="namedview123"
   showgrid="false"
   inkscape:zoom="8"
   inkscape:cx="10.819061"
   inkscape:cy="24"
   inkscape:window-x="0"
   inkscape:window-y="0"
   inkscape:window-maximized="0"
   inkscape:current-layer="Layer_1" />


<rect
   style="fill:#f1f1f1;fill-opacity:1;stroke:#808080;stroke-width:1.75925291;stroke-miterlimit:4;stroke-opacity:1;stroke-dasharray:none"
   id="rect2828"
   width="45.615749"
   height="45.865749"
   x="1.2546265"
   y="1.1296265" /><g
   id="g63"
   transform="translate(24.908812,-1.5452698)">
	<path
   d="M 5.558,7.718 5.974,43.715 41.971,43.3 41.556,7.302 5.558,7.718 z m 34.182,15.606 0,0 0.012,1 0,0 0.092,7.999 0,0 0.012,1 0,0 0.093,8 0,0 -9.999,0.115 -1,0.012 -10,0.115 -1,0.012 -10,0.115 0,0 -0.3,-25.999 0,0 10,-0.115 1,-0.012 9.999,-0.115 1,-0.012 10,-0.115 0,0 0.091,8 z"
   id="path65"
   style="fill:#333333" />
	<path
   d="m 29.648,15.44 -1,0.012 0.093,8 -10,0.115 -0.092,-8 -1,0.012 0.092,8 -9.999,0.115 -0.093,-8 0,0 0.3,25.999 0,0 -0.092,-8 10,-0.115 0.092,8 1,-0.012 -0.092,-8 9.999,-0.115 0.093,8 1,-0.012 -0.093,-8 9.999,-0.115 -0.012,-1 -9.999,0.115 -0.093,-7.999 10,-0.115 -0.012,-1 -9.999,0.115 -0.092,-8 z m -11.802,17.137 -10,0.115 -0.092,-7.999 10,-0.115 0.092,7.999 z m 10.999,-0.127 -9.999,0.115 -0.092,-7.999 9.999,-0.115 0.092,7.999 z"
   id="path67"
   style="fill:#666666" />
	
		<rect
   x="7.9039998"
   y="33.633999"
   transform="matrix(-0.9999,0.0115,-0.0115,-0.9999,26.2404,75.1183)"
   width="10"
   height="8.0010004"
   id="rect69"
   style="fill:#ffffff" />
	
		<rect
   x="7.8000002"
   y="24.635"
   transform="matrix(-0.9999,0.0115,-0.0115,-0.9999,25.9287,57.1211)"
   width="10"
   height="8"
   id="rect71"
   style="fill:#ffffff" />
	
		<rect
   x="7.6960001"
   y="15.636"
   transform="matrix(-0.9999,0.0115,-0.0115,-0.9999,25.617,39.1244)"
   width="10"
   height="8"
   id="rect73"
   style="fill:#ffffff" />
	
		<rect
   x="18.903"
   y="33.507999"
   transform="matrix(-0.9999,0.0115,-0.0115,-0.9999,48.2373,74.7377)"
   width="10"
   height="8.0010004"
   id="rect75"
   style="fill:#ffffff" />
	
		<rect
   x="18.799"
   y="24.509001"
   transform="matrix(-0.9999,0.0115,-0.0115,-0.9999,47.9251,56.7404)"
   width="9.9989996"
   height="8"
   id="rect77"
   style="fill:#ffffff" />
	
		<rect
   x="18.695"
   y="15.509"
   transform="matrix(-0.9999,0.0115,-0.0115,-0.9999,47.6139,38.7437)"
   width="10"
   height="8"
   id="rect79"
   style="fill:#ffffff" />
	<rect
   x="39.902"
   y="33.323002"
   width="0"
   height="8.0010004"
   id="rect81"
   style="fill:#ffffff" />
	
		<rect
   x="29.903"
   y="33.381001"
   transform="matrix(-0.9999,0.0115,-0.0115,-0.9999,70.2331,74.357)"
   width="10"
   height="8.0010004"
   id="rect83"
   style="fill:#ffffff" />
	<rect
   x="39.798"
   y="24.323999"
   width="0"
   height="8"
   id="rect85"
   style="fill:#ffffff" />
	
		<rect
   x="29.798"
   y="24.382"
   transform="matrix(-0.9999,0.0115,-0.0115,-0.9999,69.9204,56.3598)"
   width="10.001"
   height="8"
   id="rect87"
   style="fill:#ffffff" />
	<rect
   x="39.694"
   y="15.324"
   width="0"
   height="8"
   id="rect89"
   style="fill:#ffffff" />
	
		<rect
   x="29.694"
   y="15.382"
   transform="matrix(-0.9999,0.0115,-0.0115,-0.9999,69.6097,38.3631)"
   width="10.001"
   height="8"
   id="rect91"
   style="fill:#ffffff" />
</g>

<text
   xml:space="preserve"
   style="font-size:12;font-style:normal;font-weight:normal;fill:#000000;fill-opacity:1;stroke:none;font-family:Arial Narrow;-inkscape-font-specification:Arial Narrow"
   x="2.0687332"
   y="29.792433"
   id="text2842"><tspan
     sodipodi:role="line"
     id="tspan2844"
     x="2.0687332"
     y="29.792433">(Cast )</tspan></text>



<path
   style="fill:#808080;stroke:#666666;stroke-width:1.00158942px;stroke-linecap:butt;stroke-linejoin:miter;stroke-opacity:1"
   d="m 37.500795,14.125795 0.24841,26.12341"
   id="path2829" />
<rect style="fill:#00a6ff; fill-opacity:0.7;" x="0" y="42 " width="48" height="6" />
</svg>
