<?xml version="1.0" encoding="UTF-8" standalone="no"?>
<!-- Generator: Adobe Illustrator 13.0.0, SVG Export Plug-In . SVG Version: 6.00 Build 14948)  -->

<svg
   xmlns:dc="http://purl.org/dc/elements/1.1/"
   xmlns:cc="http://creativecommons.org/ns#"
   xmlns:rdf="http://www.w3.org/1999/02/22-rdf-syntax-ns#"
   xmlns:svg="http://www.w3.org/2000/svg"
   xmlns="http://www.w3.org/2000/svg"
   xmlns:sodipodi="http://sodipodi.sourceforge.net/DTD/sodipodi-0.dtd"
   xmlns:inkscape="http://www.inkscape.org/namespaces/inkscape"
   version="1.1"
   id="Layer_1"
   x="0px"
   y="0px"
   width="48px"
   height="48px"
   viewBox="0 0 48 48"
   enable-background="new 0 0 48 48"
   xml:space="preserve"
   inkscape:version="0.47 r22583"
   sodipodi:docname="UTSucc.svg"><metadata
   id="metadata31"><rdf:RDF><cc:Work
       rdf:about=""><dc:format>image/svg+xml</dc:format><dc:type
         rdf:resource="http://purl.org/dc/dcmitype/StillImage" /></cc:Work></rdf:RDF></metadata><defs
   id="defs29"><inkscape:perspective
     sodipodi:type="inkscape:persp3d"
     inkscape:vp_x="0 : 24 : 1"
     inkscape:vp_y="0 : 1000 : 0"
     inkscape:vp_z="48 : 24 : 1"
     inkscape:persp3d-origin="24 : 16 : 1"
     id="perspective33" /><inkscape:perspective
     id="perspective2872"
     inkscape:persp3d-origin="0.5 : 0.33333333 : 1"
     inkscape:vp_z="1 : 0.5 : 1"
     inkscape:vp_y="0 : 1000 : 0"
     inkscape:vp_x="0 : 0.5 : 1"
     sodipodi:type="inkscape:persp3d" /><inkscape:perspective
     id="perspective2908"
     inkscape:persp3d-origin="0.5 : 0.33333333 : 1"
     inkscape:vp_z="1 : 0.5 : 1"
     inkscape:vp_y="0 : 1000 : 0"
     inkscape:vp_x="0 : 0.5 : 1"
     sodipodi:type="inkscape:persp3d" /><inkscape:perspective
     id="perspective2930"
     inkscape:persp3d-origin="0.5 : 0.33333333 : 1"
     inkscape:vp_z="1 : 0.5 : 1"
     inkscape:vp_y="0 : 1000 : 0"
     inkscape:vp_x="0 : 0.5 : 1"
     sodipodi:type="inkscape:persp3d" /><inkscape:perspective
     id="perspective2956"
     inkscape:persp3d-origin="0.5 : 0.33333333 : 1"
     inkscape:vp_z="1 : 0.5 : 1"
     inkscape:vp_y="0 : 1000 : 0"
     inkscape:vp_x="0 : 0.5 : 1"
     sodipodi:type="inkscape:persp3d" /><inkscape:perspective
     id="perspective2978"
     inkscape:persp3d-origin="0.5 : 0.33333333 : 1"
     inkscape:vp_z="1 : 0.5 : 1"
     inkscape:vp_y="0 : 1000 : 0"
     inkscape:vp_x="0 : 0.5 : 1"
     sodipodi:type="inkscape:persp3d" /><inkscape:perspective
     id="perspective3000"
     inkscape:persp3d-origin="0.5 : 0.33333333 : 1"
     inkscape:vp_z="1 : 0.5 : 1"
     inkscape:vp_y="0 : 1000 : 0"
     inkscape:vp_x="0 : 0.5 : 1"
     sodipodi:type="inkscape:persp3d" /><inkscape:perspective
     id="perspective3022"
     inkscape:persp3d-origin="0.5 : 0.33333333 : 1"
     inkscape:vp_z="1 : 0.5 : 1"
     inkscape:vp_y="0 : 1000 : 0"
     inkscape:vp_x="0 : 0.5 : 1"
     sodipodi:type="inkscape:persp3d" /><inkscape:perspective
     id="perspective3044"
     inkscape:persp3d-origin="0.5 : 0.33333333 : 1"
     inkscape:vp_z="1 : 0.5 : 1"
     inkscape:vp_y="0 : 1000 : 0"
     inkscape:vp_x="0 : 0.5 : 1"
     sodipodi:type="inkscape:persp3d" /><inkscape:perspective
     id="perspective3044-7"
     inkscape:persp3d-origin="0.5 : 0.33333333 : 1"
     inkscape:vp_z="1 : 0.5 : 1"
     inkscape:vp_y="0 : 1000 : 0"
     inkscape:vp_x="0 : 0.5 : 1"
     sodipodi:type="inkscape:persp3d" /><inkscape:perspective
     id="perspective3044-5"
     inkscape:persp3d-origin="0.5 : 0.33333333 : 1"
     inkscape:vp_z="1 : 0.5 : 1"
     inkscape:vp_y="0 : 1000 : 0"
     inkscape:vp_x="0 : 0.5 : 1"
     sodipodi:type="inkscape:persp3d" /><inkscape:perspective
     id="perspective2848"
     inkscape:persp3d-origin="0.5 : 0.33333333 : 1"
     inkscape:vp_z="1 : 0.5 : 1"
     inkscape:vp_y="0 : 1000 : 0"
     inkscape:vp_x="0 : 0.5 : 1"
     sodipodi:type="inkscape:persp3d" /><inkscape:perspective
     id="perspective2884"
     inkscape:persp3d-origin="0.5 : 0.33333333 : 1"
     inkscape:vp_z="1 : 0.5 : 1"
     inkscape:vp_y="0 : 1000 : 0"
     inkscape:vp_x="0 : 0.5 : 1"
     sodipodi:type="inkscape:persp3d" /><inkscape:perspective
     id="perspective2884-0"
     inkscape:persp3d-origin="0.5 : 0.33333333 : 1"
     inkscape:vp_z="1 : 0.5 : 1"
     inkscape:vp_y="0 : 1000 : 0"
     inkscape:vp_x="0 : 0.5 : 1"
     sodipodi:type="inkscape:persp3d" /><inkscape:perspective
     id="perspective2920"
     inkscape:persp3d-origin="0.5 : 0.33333333 : 1"
     inkscape:vp_z="1 : 0.5 : 1"
     inkscape:vp_y="0 : 1000 : 0"
     inkscape:vp_x="0 : 0.5 : 1"
     sodipodi:type="inkscape:persp3d" /><inkscape:perspective
     id="perspective2920-4"
     inkscape:persp3d-origin="0.5 : 0.33333333 : 1"
     inkscape:vp_z="1 : 0.5 : 1"
     inkscape:vp_y="0 : 1000 : 0"
     inkscape:vp_x="0 : 0.5 : 1"
     sodipodi:type="inkscape:persp3d" /><inkscape:perspective
     id="perspective2920-1"
     inkscape:persp3d-origin="0.5 : 0.33333333 : 1"
     inkscape:vp_z="1 : 0.5 : 1"
     inkscape:vp_y="0 : 1000 : 0"
     inkscape:vp_x="0 : 0.5 : 1"
     sodipodi:type="inkscape:persp3d" /><inkscape:perspective
     id="perspective2967"
     inkscape:persp3d-origin="0.5 : 0.33333333 : 1"
     inkscape:vp_z="1 : 0.5 : 1"
     inkscape:vp_y="0 : 1000 : 0"
     inkscape:vp_x="0 : 0.5 : 1"
     sodipodi:type="inkscape:persp3d" /><inkscape:perspective
     id="perspective2967-2"
     inkscape:persp3d-origin="0.5 : 0.33333333 : 1"
     inkscape:vp_z="1 : 0.5 : 1"
     inkscape:vp_y="0 : 1000 : 0"
     inkscape:vp_x="0 : 0.5 : 1"
     sodipodi:type="inkscape:persp3d" /><inkscape:perspective
     id="perspective2967-1"
     inkscape:persp3d-origin="0.5 : 0.33333333 : 1"
     inkscape:vp_z="1 : 0.5 : 1"
     inkscape:vp_y="0 : 1000 : 0"
     inkscape:vp_x="0 : 0.5 : 1"
     sodipodi:type="inkscape:persp3d" /><inkscape:perspective
     id="perspective3014"
     inkscape:persp3d-origin="0.5 : 0.33333333 : 1"
     inkscape:vp_z="1 : 0.5 : 1"
     inkscape:vp_y="0 : 1000 : 0"
     inkscape:vp_x="0 : 0.5 : 1"
     sodipodi:type="inkscape:persp3d" /><inkscape:perspective
     id="perspective3014-2"
     inkscape:persp3d-origin="0.5 : 0.33333333 : 1"
     inkscape:vp_z="1 : 0.5 : 1"
     inkscape:vp_y="0 : 1000 : 0"
     inkscape:vp_x="0 : 0.5 : 1"
     sodipodi:type="inkscape:persp3d" /><inkscape:perspective
     id="perspective3014-8"
     inkscape:persp3d-origin="0.5 : 0.33333333 : 1"
     inkscape:vp_z="1 : 0.5 : 1"
     inkscape:vp_y="0 : 1000 : 0"
     inkscape:vp_x="0 : 0.5 : 1"
     sodipodi:type="inkscape:persp3d" /><inkscape:perspective
     id="perspective2878"
     inkscape:persp3d-origin="0.5 : 0.33333333 : 1"
     inkscape:vp_z="1 : 0.5 : 1"
     inkscape:vp_y="0 : 1000 : 0"
     inkscape:vp_x="0 : 0.5 : 1"
     sodipodi:type="inkscape:persp3d" /><inkscape:perspective
     id="perspective2900"
     inkscape:persp3d-origin="0.5 : 0.33333333 : 1"
     inkscape:vp_z="1 : 0.5 : 1"
     inkscape:vp_y="0 : 1000 : 0"
     inkscape:vp_x="0 : 0.5 : 1"
     sodipodi:type="inkscape:persp3d" /><inkscape:perspective
     id="perspective2949"
     inkscape:persp3d-origin="0.5 : 0.33333333 : 1"
     inkscape:vp_z="1 : 0.5 : 1"
     inkscape:vp_y="0 : 1000 : 0"
     inkscape:vp_x="0 : 0.5 : 1"
     sodipodi:type="inkscape:persp3d" /><inkscape:perspective
     id="perspective2971"
     inkscape:persp3d-origin="0.5 : 0.33333333 : 1"
     inkscape:vp_z="1 : 0.5 : 1"
     inkscape:vp_y="0 : 1000 : 0"
     inkscape:vp_x="0 : 0.5 : 1"
     sodipodi:type="inkscape:persp3d" /><inkscape:perspective
     id="perspective3002"
     inkscape:persp3d-origin="0.5 : 0.33333333 : 1"
     inkscape:vp_z="1 : 0.5 : 1"
     inkscape:vp_y="0 : 1000 : 0"
     inkscape:vp_x="0 : 0.5 : 1"
     sodipodi:type="inkscape:persp3d" /><inkscape:perspective
     id="perspective3027"
     inkscape:persp3d-origin="0.5 : 0.33333333 : 1"
     inkscape:vp_z="1 : 0.5 : 1"
     inkscape:vp_y="0 : 1000 : 0"
     inkscape:vp_x="0 : 0.5 : 1"
     sodipodi:type="inkscape:persp3d" /><inkscape:perspective
     id="perspective3054"
     inkscape:persp3d-origin="0.5 : 0.33333333 : 1"
     inkscape:vp_z="1 : 0.5 : 1"
     inkscape:vp_y="0 : 1000 : 0"
     inkscape:vp_x="0 : 0.5 : 1"
     sodipodi:type="inkscape:persp3d" /><inkscape:perspective
     id="perspective3076"
     inkscape:persp3d-origin="0.5 : 0.33333333 : 1"
     inkscape:vp_z="1 : 0.5 : 1"
     inkscape:vp_y="0 : 1000 : 0"
     inkscape:vp_x="0 : 0.5 : 1"
     sodipodi:type="inkscape:persp3d" /><inkscape:perspective
     id="perspective3098"
     inkscape:persp3d-origin="0.5 : 0.33333333 : 1"
     inkscape:vp_z="1 : 0.5 : 1"
     inkscape:vp_y="0 : 1000 : 0"
     inkscape:vp_x="0 : 0.5 : 1"
     sodipodi:type="inkscape:persp3d" /><inkscape:perspective
     id="perspective3123"
     inkscape:persp3d-origin="0.5 : 0.33333333 : 1"
     inkscape:vp_z="1 : 0.5 : 1"
     inkscape:vp_y="0 : 1000 : 0"
     inkscape:vp_x="0 : 0.5 : 1"
     sodipodi:type="inkscape:persp3d" /><inkscape:perspective
     id="perspective3145"
     inkscape:persp3d-origin="0.5 : 0.33333333 : 1"
     inkscape:vp_z="1 : 0.5 : 1"
     inkscape:vp_y="0 : 1000 : 0"
     inkscape:vp_x="0 : 0.5 : 1"
     sodipodi:type="inkscape:persp3d" /><inkscape:perspective
     id="perspective3167"
     inkscape:persp3d-origin="0.5 : 0.33333333 : 1"
     inkscape:vp_z="1 : 0.5 : 1"
     inkscape:vp_y="0 : 1000 : 0"
     inkscape:vp_x="0 : 0.5 : 1"
     sodipodi:type="inkscape:persp3d" /><inkscape:perspective
     id="perspective3189"
     inkscape:persp3d-origin="0.5 : 0.33333333 : 1"
     inkscape:vp_z="1 : 0.5 : 1"
     inkscape:vp_y="0 : 1000 : 0"
     inkscape:vp_x="0 : 0.5 : 1"
     sodipodi:type="inkscape:persp3d" /><inkscape:perspective
     id="perspective3189-5"
     inkscape:persp3d-origin="0.5 : 0.33333333 : 1"
     inkscape:vp_z="1 : 0.5 : 1"
     inkscape:vp_y="0 : 1000 : 0"
     inkscape:vp_x="0 : 0.5 : 1"
     sodipodi:type="inkscape:persp3d" /></defs><sodipodi:namedview
   pagecolor="#ffffff"
   bordercolor="#666666"
   borderopacity="1"
   objecttolerance="10"
   gridtolerance="10"
   guidetolerance="10"
   inkscape:pageopacity="0"
   inkscape:pageshadow="2"
   inkscape:window-width="1601"
   inkscape:window-height="994"
   id="namedview27"
   showgrid="false"
   inkscape:zoom="1.3"
   inkscape:cx="8.7727273"
   inkscape:cy="26.089862"
   inkscape:window-x="17"
   inkscape:window-y="146"
   inkscape:window-maximized="0"
   inkscape:current-layer="Layer_1" />









<path
   d="m 2.7085368,0.87912027 0,46.98484773 11.3370622,0 0,-46.98484773 -11.3370622,0 z M 13.415716,21.761275 l 0,0 0,1.305135 0,0 0,10.441077 0,0 0,1.305135 0,0 0,10.441077 0,0 -3.149415,0 -0.3145253,0 -3.1494147,0 -0.3145252,0 -3.149416,0 0,0 0,-33.933502 0,0 3.149416,0 0.3145252,0 3.1494147,0 0.3145253,0 3.149415,0 0,0 0,10.441078 z"
   id="path3-9"
   style="fill:#333333" /><path
   d="m 13.426887,18.833 0,-8 -0.934424,0 0,8 -9.3400751,0 0,-8 0,0 0,26 0,0 0,-8 9.3400751,0 0,8 0.934424,0 0,-8 m -0.934424,-1 -9.3400751,0 0,-8 9.3400751,0 0,8 z m 0.934424,0 0,-8"
   id="path5-4"
   style="fill:#666666" /><path
   style="fill:#999999;fill-opacity:1;stroke:#808080;stroke-width:0.02747253;stroke-miterlimit:4;stroke-opacity:1;stroke-dasharray:none"
   d="m 3.3409359,27.725857 c -0.02416,-0.06296 -0.03317,-1.865842 -0.02002,-4.00641 l 0.02391,-3.891941 4.555861,-0.02375 4.5558601,-0.02375 0,4.030159 0,4.030159 -4.5358411,0 c -3.544195,0 -4.545444,-0.02503 -4.579766,-0.114469 z"
   id="path3086" />
<text
   xml:space="preserve"
   style="font-size:8px;font-style:normal;font-variant:normal;font-weight:normal;font-stretch:normal;fill:#000000;fill-opacity:1;stroke:none;font-family:Verdana;-inkscape-font-specification:Verdana"
   x="5.559186"
   y="17.724432"
   id="text2872-7"><tspan
     sodipodi:role="line"
     id="tspan2874-4"
     x="5.559186"
     y="17.724432">0</tspan></text>




<text
   xml:space="preserve"
   style="font-size:8px;font-style:normal;font-variant:normal;font-weight:normal;font-stretch:normal;fill:#000000;fill-opacity:1;stroke:none;font-family:Verdana;-inkscape-font-specification:Verdana"
   x="5.6731768"
   y="26.675543"
   id="text2872-9-8"><tspan
     sodipodi:role="line"
     id="tspan2874-48-2"
     x="5.6731768"
     y="26.675543">1</tspan></text>







<text
   xml:space="preserve"
   style="font-size:8px;font-style:normal;font-variant:normal;font-weight:normal;font-stretch:normal;fill:#000000;fill-opacity:1;stroke:none;font-family:Verdana;-inkscape-font-specification:Verdana"
   x="5.4326468"
   y="35.817242"
   id="text2872-7-4-3"><tspan
     sodipodi:role="line"
     id="tspan2874-4-2-2"
     x="5.4326468"
     y="35.817242">2</tspan></text>





<path
   d="m 19.900121,0.98436157 0,46.75854943 28.078545,0 0,-46.75854943 -28.078545,0 z m 26.518511,20.78157743 0,0 0,1.298848 0,0 0,10.390789 0,0 0,1.298848 0,0 0,10.39079 0,0 -7.800166,0 -0.778989,0 -7.800167,0 -0.778986,0 -7.80017,0 0,0 0,-33.770064 0,0 7.80017,0 0.778986,0 7.800167,0 0.778989,0 7.800166,0 0,0 0,10.390789 z"
   id="path3-9-7"
   style="fill:#333333" /><path
   d="m 38.690921,18.741701 0,-8.000216 -0.86935,0 0,8.000216 -8.68963,0 0,-8.000216 0,0 0,26.000704 0,0 0,-8.000217 8.68963,0 0,8.000217 0.86935,0 0,-8.000217 m -0.86935,-1.000027 -8.68963,0 0,-8.000217 8.68963,0 0,8.000217 z m 0.86935,0 0,-8.000217"
   id="path5-4-4"
   style="fill:#666666" /><path
   style="fill:#999999;fill-opacity:1;stroke:#808080;stroke-width:0.02649903;stroke-miterlimit:4;stroke-opacity:1;stroke-dasharray:none"
   d="m 29.307359,27.634799 c -0.02248,-0.06296 -0.03086,-1.865892 -0.01863,-4.006518 l 0.02224,-3.892047 4.238589,-0.02375 4.238589,-0.02375 0,4.030268 0,4.030268 -4.219964,0 c -3.297376,0 -4.228898,-0.02503 -4.26083,-0.114472 z"
   id="path3086-0" /><text
   xml:space="preserve"
   style="font-size:7.71651697px;font-style:normal;font-variant:normal;font-weight:normal;font-stretch:normal;fill:#000000;fill-opacity:1;stroke:none;font-family:Verdana;-inkscape-font-specification:Verdana"
   x="32.524494"
   y="17.007807"
   id="text2872-7-9"
   transform="scale(0.96453854,1.0367652)"><tspan
     sodipodi:role="line"
     id="tspan2874-4-4"
     x="32.524494"
     y="17.007807">0</tspan></text>


<text
   xml:space="preserve"
   style="font-size:7.71651697px;font-style:normal;font-variant:normal;font-weight:normal;font-stretch:normal;fill:#000000;fill-opacity:1;stroke:none;font-family:Verdana;-inkscape-font-specification:Verdana"
   x="32.634445"
   y="25.641731"
   id="text2872-9-8-8"
   transform="scale(0.96453854,1.0367652)"><tspan
     sodipodi:role="line"
     id="tspan2874-48-2-8"
     x="32.634445"
     y="25.641731">1</tspan></text>


<text
   xml:space="preserve"
   style="font-size:7.71651697px;font-style:normal;font-variant:normal;font-weight:normal;font-stretch:normal;fill:#000000;fill-opacity:1;stroke:none;font-family:Verdana;-inkscape-font-specification:Verdana"
   x="32.402439"
   y="34.459492"
   id="text2872-7-4-3-2"
   transform="scale(0.96453854,1.0367652)"><tspan
     sodipodi:role="line"
     id="tspan2874-4-2-2-4"
     x="32.402439"
     y="34.459492">2</tspan></text>


<path
   d="m 29.78066,18.75102 0.03474,-8.000103 -0.73725,-0.0017 -0.03474,8.000103 -7.369225,-0.01616 0.03474,-8.000102 0,0 -0.112887,26.000331 0,0 0.03473,-8.000102 7.369227,0.01616 -0.03474,8.000103 0.737252,0.0017 0.03473,-8.000103 m -0.732909,-1.001629 -7.369225,-0.01616 0.03473,-8.000102 7.369226,0.01616 -0.03473,8.000101 z m 0.737252,0.0017 0.03473,-8.000101"
   id="path5-4-4-5-1-1-5"
   style="fill:#666666" /><path
   d="m 46.499183,18.796744 0.03474,-8.000103 -0.73725,-0.0017 -0.03474,8.000103 -7.369225,-0.01616 0.03474,-8.000102 0,0 -0.112887,26.000331 0,0 0.03473,-8.000102 7.369227,0.01616 -0.03474,8.000103 0.737252,0.0017 0.03473,-8.000103 m -0.732909,-1.001629 -7.369225,-0.01616 0.03473,-8.000102 7.369226,0.01616 -0.03473,8.000101 z m 0.737252,0.0017 0.03473,-8.000101"
   id="path5-4-4-5-1-1-5-5"
   style="fill:#666666" /><path
   style="fill:#999999;fill-opacity:1;stroke:#808080;stroke-width:0.02272727;stroke-miterlimit:4;stroke-opacity:1;stroke-dasharray:none"
   d="m 38.681818,14.788926 0,-4.015152 3.560606,0 3.560606,0 0,4.015152 0,4.015151 -3.560606,0 -3.560606,0 0,-4.015151 z"
   id="path2992" /><text
   xml:space="preserve"
   style="font-size:7.71651697px;font-style:normal;font-variant:normal;font-weight:normal;font-stretch:normal;fill:#000000;fill-opacity:1;stroke:none;font-family:Verdana;-inkscape-font-specification:Verdana"
   x="41.260998"
   y="17.063435"
   id="text2872-9-8-8-1"
   transform="scale(0.96453854,1.0367652)"><tspan
     sodipodi:role="line"
     id="tspan2874-48-2-8-1"
     x="41.260998"
     y="17.063435">1</tspan></text>


<text
   xml:space="preserve"
   style="font-size:7.71651697px;font-style:normal;font-variant:normal;font-weight:normal;font-stretch:normal;fill:#000000;fill-opacity:1;stroke:none;font-family:Verdana;-inkscape-font-specification:Verdana"
   x="41.39983"
   y="25.734808"
   id="text2872-7-4-3-2-5"
   transform="scale(0.96453854,1.0367652)"><tspan
     sodipodi:role="line"
     id="tspan2874-4-2-2-4-2"
     x="41.39983"
     y="25.734808">2</tspan></text>


<path
   d="m 13.470583,27.848485 0,-8 -0.934424,0 0,8 -9.3400752,0 0,-8 0,0 0,26 0,0 0,-8 9.3400752,0 0,8 0.934424,0 0,-8 m -0.934424,-1 -9.3400752,0 0,-8 9.3400752,0 0,8 z m 0.934424,0 0,-8"
   id="path5-4-6"
   style="fill:#666666" /><text
   xml:space="preserve"
   style="font-size:8px;font-style:normal;font-variant:normal;font-weight:normal;font-stretch:normal;fill:#000000;fill-opacity:1;stroke:none;font-family:Verdana;-inkscape-font-specification:Verdana"
   x="5.6599193"
   y="44.377838"
   id="text2872-7-4-3-1"><tspan
     sodipodi:role="line"
     id="tspan2874-4-2-2-42"
     x="5.6599193"
     y="44.377838">3</tspan></text>


<path
   d="m 29.605244,27.632251 0.03474,-8.652335 -0.73725,-0.0018 -0.03474,8.652335 -7.369225,-0.01748 0.03474,-8.652334 0,0 -0.112887,28.120087 0,0 0.03473,-8.652335 7.369227,0.01748 -0.03474,8.652336 0.737252,0.0018 0.03473,-8.652336 m -0.732909,-1.083289 -7.369225,-0.01748 0.03473,-8.652336 7.369226,0.01748 -0.03473,8.652334 z m 0.737252,0.0018 0.03473,-8.652334"
   id="path5-4-4-5-1-1-5-3"
   style="fill:#666666" /><path
   d="m 38.615592,27.649879 0.03954,-8.745511 -0.839178,-0.0019 -0.03954,8.745511 -8.388053,-0.01766 0.03954,-8.74551 0,0 -0.128494,28.422907 0,0 0.03953,-8.74551 8.388056,0.01766 -0.03954,8.745511 0.83918,0.0019 0.03953,-8.745511 m -0.834237,-1.094956 -8.388054,-0.01766 0.03953,-8.74551 8.388054,0.01766 -0.03953,8.745509 z m 0.83918,0.0019 0.03953,-8.74551"
   id="path5-4-4-5-1-1-5-5-2"
   style="fill:#666666" /><path
   d="m 46.499183,27.865244 0.03474,-8.582454 -0.73725,-0.0018 -0.03474,8.582454 -7.369225,-0.01734 0.03474,-8.582453 0,0 -0.112887,27.89297 0,0 0.03473,-8.582452 7.369227,0.01734 -0.03474,8.582454 0.737252,0.0018 0.03473,-8.582453 m -0.732909,-1.074541 -7.369225,-0.01734 0.03473,-8.582453 7.369226,0.01734 -0.03473,8.582451 z m 0.737252,0.0018 0.03473,-8.582451"
   id="path5-4-4-5-1-1-5-5-21"
   style="fill:#666666" /><text
   xml:space="preserve"
   style="font-size:8px;font-style:normal;font-variant:normal;font-weight:normal;font-stretch:normal;fill:#000000;fill-opacity:1;stroke:none;font-family:Verdana;-inkscape-font-specification:Verdana"
   x="30.916489"
   y="44.847599"
   id="text2872-7-4-3-1-6"><tspan
     sodipodi:role="line"
     id="tspan2874-4-2-2-42-8"
     x="30.916489"
     y="44.847599">3</tspan></text>


<text
   xml:space="preserve"
   style="font-size:8px;font-style:normal;font-variant:normal;font-weight:normal;font-stretch:normal;fill:#000000;fill-opacity:1;stroke:none;font-family:Verdana;-inkscape-font-specification:Verdana"
   x="39.855881"
   y="35.908203"
   id="text2872-7-4-3-1-7"><tspan
     sodipodi:role="line"
     id="tspan2874-4-2-2-42-6"
     x="39.855881"
     y="35.908203">3</tspan></text>


<path
   style="fill:#000000;fill-opacity:1;stroke:#808080;stroke-width:0.02272727;stroke-miterlimit:4;stroke-opacity:1;stroke-dasharray:none"
   d="m 38.548438,41.860896 0.01974,-3.276515 3.560606,0 3.560606,0 0.01974,3.276515 0.01974,3.276515 -3.600094,0 -3.600094,0 0.01974,-3.276515 z"
   id="path3217" /><rect
   style="fill:#ffffff;fill-opacity:1;stroke:#ffffff;stroke-width:0.34029603;stroke-miterlimit:4;stroke-opacity:1;stroke-dasharray:none"
   id="rect2885"
   width="8.9748554"
   height="51.096069"
   x="19.792875"
   y="-0.99500346" />
<rect style="fill:#00ff72; fill-opacity:0.7;" x="0" y="42 " width="48" height="6" />
</svg>
