<?xml version="1.0" encoding="utf-8"?>
<!-- Generator: Adobe Illustrator 13.0.0, SVG Export Plug-In . SVG Version: 6.00 Build 14948)  -->
<!DOCTYPE svg PUBLIC "-//W3C//DTD SVG 1.1//EN" "http://www.w3.org/Graphics/SVG/1.1/DTD/svg11.dtd">
<svg version="1.1" xmlns="http://www.w3.org/2000/svg" xmlns:xlink="http://www.w3.org/1999/xlink" x="0px" y="0px" width="24px"
	 height="24px" viewBox="0 0 24 24" enable-background="new 0 0 24 24" xml:space="preserve">
<g id="Layer_1">
	<rect x="1" y="1" fill="#333333" width="1.222" height="22"/>
	<rect x="1" y="21.777" fill="#333333" width="22" height="1.223"/>
	<line fill="none" stroke="#000000" stroke-width="0.5" x1="1.672" y1="22.568" x2="5.75" y2="16.938"/>
	<line fill="none" stroke="#000000" stroke-width="0.5" x1="1.569" y1="22.25" x2="5.75" y2="16.938"/>
	<line fill="none" stroke="#000000" stroke-width="0.5" x1="1.461" y1="22.656" x2="5.581" y2="17.173"/>
</g>
<g id="Calque_2">
	<path opacity="0.79" fill="none" stroke="#000000" stroke-width="0.5" d="M6.75,14.9c2.753,0.065,5.599,0.002,8.284-0.483
		c1.379-0.249,5.864-1.382,4.552-3.004c-1.209-1.493-4.351-2.169-6.257-2.64C12.695,8.618,5.64,7.159,6.093,8.71
		c1.827,0.423,3.966,0.068,5.744-0.328c1.696-0.378,5.182-0.858,5.98-2.344c0.897-1.669-1.44-1.852-2.784-2.481
		c-0.838-0.392-1.833-1.887-0.366-2.223"/>
	<line opacity="0.52" fill="none" stroke="#000000" stroke-width="0.15" x1="14.667" y1="1.146" x2="14.667" y2="17.75"/>
	<line opacity="0.55" fill="none" stroke="#000000" stroke-width="0.15" x1="6.896" y1="14.9" x2="6.896" y2="21.146"/>
	<path opacity="0.4" fill="none" stroke="#000000" stroke-width="0.5" d="M6.958,20.854c2.753,0.015,5.599,0,8.284-0.11
		c1.379-0.058,5.864-0.316,4.552-0.688c-1.209-0.342-4.351-0.496-6.257-0.604c-0.634-0.035-7.689-0.369-7.236-0.015
		c1.827,0.098,3.966,0.017,5.744-0.074c1.696-0.087,5.182-0.196,5.98-0.537c0.897-0.382-1.44-0.424-2.784-0.567
		c-0.838-0.09-1.833-0.432-0.366-0.509"/>
</g>

<rect style="fill:#00ff7d; fill-opacity:0.7;" x="0" y="42 " width="48" height="6" />
</svg>
