<?xml version="1.0" encoding="utf-8"?>
<!-- Generator: Adobe Illustrator 13.0.0, SVG Export Plug-In . SVG Version: 6.00 Build 14948)  -->
<!DOCTYPE svg PUBLIC "-//W3C//DTD SVG 1.1//EN" "http://www.w3.org/Graphics/SVG/1.1/DTD/svg11.dtd">
<svg version="1.1" id="Calque_1" xmlns="http://www.w3.org/2000/svg" xmlns:xlink="http://www.w3.org/1999/xlink" x="0px" y="0px"
	 width="37.5px" height="37.746px" viewBox="-7.25 -7.375 37.5 37.746" enable-background="new -7.25 -7.375 37.5 37.746"
	 xml:space="preserve">
<ellipse fill="#66CCCC" stroke="#000000" stroke-width="2" cx="11.5" cy="11.499" rx="17.75" ry="17.873"/>
<g id="Layer_1">
	<rect x="-1.328" y="0.6" width="1.265" height="22.858"/>
	<rect x="-1.328" y="22.188" width="25.913" height="1.271"/>
	<line fill="none" stroke="#000000" stroke-width="0.5" x1="0.047" y1="23.09" x2="3.589" y2="17.159"/>
	<line fill="none" stroke="#000000" stroke-width="0.5" x1="-0.978" y1="22.708" x2="3.589" y2="17.159"/>
	<line fill="none" stroke="#000000" stroke-width="0.5" x1="-0.685" y1="23.208" x2="3.414" y2="17.403"/>
</g>
<g id="Calque_2">
	<path opacity="0.52" fill="none" stroke="#000000" stroke-width="0.15" enable-background="new    " d="M13.205,19.665"/>
	<path opacity="0.52" fill="none" stroke="#000000" stroke-width="0.15" enable-background="new    " d="M13.205-1.627"/>
	<path opacity="0.55" fill="none" stroke="#000000" stroke-width="0.15" enable-background="new    " d="M-0.078,24.02"/>
	<path opacity="0.55" fill="none" stroke="#000000" stroke-width="0.15" enable-background="new    " d="M-0.078,16.012"/>
</g>
<line fill="#666666" stroke="#6E6E6E" stroke-width="0.5" stroke-dasharray="1" x1="2.554" y1="14.496" x2="2.554" y2="20.73"/>
<line fill="#666666" stroke="#6E6E6E" stroke-width="0.5" stroke-dasharray="1" x1="22.126" y1="2.472" x2="22.224" y2="17.365"/>
<line fill="#666666" stroke="#6E6E6E" stroke-width="0.5" stroke-dasharray="1" x1="8.723" y1="-0.316" x2="8.843" y2="16.072"/>
<polyline fill="none" stroke="#000000" stroke-width="0.75" points="2.554,14.496 6.048,11.769 8.118,12.808 10.189,13.067 
	12.258,12.289 15.105,10.34 18.34,8.522 20.152,8.522 21.522,6.35 21.764,4.653 22.126,2.472 21.764,1.987 19.832,2.229 
	18.081,3.847 16.934,3.562 15.243,3.684 14.398,2.108 12.104,1.623 10.534,0.29 8.844,-0.437 "/>
<rect x="0.391" y="0.896" fill="none" width="23.184" height="23.268"/>
</svg>
