<svg height="38" width="38">
<circle r="17" fill-opacity=".286" stroke="#000" cy="19" cx="19" stroke-width="2" fill="#f00"/>
<g stroke="#000" fill="none">
<path d="m1.33 18c0 3.7 7.91 6.7 17.7 6.7 9.76 0.000096 17.7-2.99 17.7-6.67" stroke-width=".657"/>
<path d="m5.24 8c0 2.6 6.16 4.8 13.8 4.8 7.6 0.000068 13.8-2.13 13.8-4.76" stroke-width=".490"/>
<path d="m5.27 28c0 3.2 6.13 5.7 13.7 5.7 7.58 0.000082 13.7-2.57 13.7-5.73" stroke-width=".537"/>
</g>
<path stroke-linejoin="round" d="m28 1c-4.28-0.000232-7.75 3.92-7.75 8.75-0.000182 4.83 7.75 12 7.75 12s7.75-7.17 7.75-12c0.000182-4.83-3.47-8.75-7.75-8.75zm0 4.75c2.14 0.000492 3.87 1.58 3.88 4-0.000386 2.42-1.74 4-3.88 4-2.14-0.000492-3.87-1.58-3.88-4 0.000386-2.42 1.74-4 3.88-4z" stroke="#000" stroke-linecap="round" stroke-width=".497" fill="#6e00ff"/>
</svg>
