<?xml version="1.0" encoding="UTF-8" standalone="no"?>
<!-- Generator: Adobe Illustrator 13.0.0, SVG Export Plug-In . SVG Version: 6.00 Build 14948)  -->

<svg
   xmlns:dc="http://purl.org/dc/elements/1.1/"
   xmlns:cc="http://creativecommons.org/ns#"
   xmlns:rdf="http://www.w3.org/1999/02/22-rdf-syntax-ns#"
   xmlns:svg="http://www.w3.org/2000/svg"
   xmlns="http://www.w3.org/2000/svg"
   xmlns:sodipodi="http://sodipodi.sourceforge.net/DTD/sodipodi-0.dtd"
   xmlns:inkscape="http://www.inkscape.org/namespaces/inkscape"
   version="1.1"
   id="Layer_1"
   x="0px"
   y="0px"
   width="48px"
   height="48px"
   viewBox="0 0 48 48"
   enable-background="new 0 0 48 48"
   xml:space="preserve"
   inkscape:version="0.91 r13725"
   sodipodi:docname="OWUTFile.svg"><metadata
   id="metadata127"><rdf:RDF><cc:Work
       rdf:about=""><dc:format>image/svg+xml</dc:format><dc:type
         rdf:resource="http://purl.org/dc/dcmitype/StillImage" /></cc:Work></rdf:RDF></metadata><defs
   id="defs125" /><sodipodi:namedview
   pagecolor="#ffffff"
   bordercolor="#666666"
   borderopacity="1"
   objecttolerance="10"
   gridtolerance="10"
   guidetolerance="10"
   inkscape:pageopacity="0"
   inkscape:pageshadow="2"
   inkscape:window-width="1295"
   inkscape:window-height="884"
   id="namedview123"
   showgrid="false"
   inkscape:zoom="4.9166667"
   inkscape:cx="24"
   inkscape:cy="24"
   inkscape:window-x="0"
   inkscape:window-y="0"
   inkscape:window-maximized="0"
   inkscape:current-layer="g3" />
<g
   id="g3">
	<path
   d="M 12.400068,4.9971852 12.71383,40.793118 39.864915,40.380437 39.550397,4.5835087 12.400068,4.9971852 Z m 25.781386,15.5188298 0,0 0.0083,0.994414 0,0 0.07014,7.954321 0,0 0.0091,0.994415 0,0 0.06939,7.955314 0,0 -7.541634,0.114358 -0.754237,0.01193 -7.541633,0.114357 -0.754239,0.01194 -7.542387,0.114358 0,0 -0.226271,-25.853779 0,0 7.542386,-0.114358 0.754239,-0.01194 7.542387,-0.114357 0.754239,-0.01193 7.541632,-0.114358 0,0 0.06864,7.955315 z"
   id="path5"
   inkscape:connector-curvature="0"
   style="fill:#333333" />
	
	
		
	
		
	
		
	
		
	
		
	
		
	<rect
   x="44.1"
   y="28.774"
   fill="#FFFFFF"
   width="0"
   height="8.001"
   id="rect21" />
	
		
	<rect
   x="43.996"
   y="19.775"
   fill="#FFFFFF"
   width="0"
   height="8"
   id="rect25" />
	
		
	<rect
   x="43.892"
   y="10.776"
   fill="#FFFFFF"
   width="0"
   height="8"
   id="rect29" />
	
		
<text
   xml:space="preserve"
   style="font-style:normal;font-weight:normal;font-size:14px;line-height:125%;font-family:'Segoe UI Symbol';-inkscape-font-specification:'Segoe UI Symbol';letter-spacing:0px;word-spacing:0px;fill:#000000;fill-opacity:1;stroke:none;stroke-width:1px;stroke-linecap:butt;stroke-linejoin:miter;stroke-opacity:1"
   x="15.661016"
   y="31.525423"
   id="text4255"
   sodipodi:linespacing="125%"><tspan
     sodipodi:role="line"
     id="tspan4257"
     x="15.661016"
     y="31.525423">File</tspan></text>
</g>




<rect style="fill:#00a6ff; fill-opacity:0.7;" x="0" y="42 " width="48" height="6" />
</svg>
