<?xml version="1.0" encoding="UTF-8" standalone="no"?>
<!-- Generator: Adobe Illustrator 13.0.0, SVG Export Plug-In . SVG Version: 6.00 Build 14948)  -->

<svg
   xmlns:dc="http://purl.org/dc/elements/1.1/"
   xmlns:cc="http://creativecommons.org/ns#"
   xmlns:rdf="http://www.w3.org/1999/02/22-rdf-syntax-ns#"
   xmlns:svg="http://www.w3.org/2000/svg"
   xmlns="http://www.w3.org/2000/svg"
   xmlns:sodipodi="http://sodipodi.sourceforge.net/DTD/sodipodi-0.dtd"
   xmlns:inkscape="http://www.inkscape.org/namespaces/inkscape"
   version="1.1"
   id="Layer_1"
   x="0px"
   y="0px"
   width="48px"
   height="48px"
   viewBox="0 0 48 48"
   enable-background="new 0 0 48 48"
   xml:space="preserve"
   inkscape:version="0.47 r22583"
   sodipodi:docname="UTTime.svg"><metadata
   id="metadata127"><rdf:RDF><cc:Work
       rdf:about=""><dc:format>image/svg+xml</dc:format><dc:type
         rdf:resource="http://purl.org/dc/dcmitype/StillImage" /></cc:Work></rdf:RDF></metadata><defs
   id="defs125"><inkscape:perspective
     sodipodi:type="inkscape:persp3d"
     inkscape:vp_x="0 : 24 : 1"
     inkscape:vp_y="0 : 1000 : 0"
     inkscape:vp_z="48 : 24 : 1"
     inkscape:persp3d-origin="24 : 16 : 1"
     id="perspective129" /><inkscape:perspective
     id="perspective3292"
     inkscape:persp3d-origin="0.5 : 0.33333333 : 1"
     inkscape:vp_z="1 : 0.5 : 1"
     inkscape:vp_y="0 : 1000 : 0"
     inkscape:vp_x="0 : 0.5 : 1"
     sodipodi:type="inkscape:persp3d" /><inkscape:perspective
     id="perspective3306"
     inkscape:persp3d-origin="0.5 : 0.33333333 : 1"
     inkscape:vp_z="1 : 0.5 : 1"
     inkscape:vp_y="0 : 1000 : 0"
     inkscape:vp_x="0 : 0.5 : 1"
     sodipodi:type="inkscape:persp3d" /><inkscape:perspective
     id="perspective2853"
     inkscape:persp3d-origin="0.5 : 0.33333333 : 1"
     inkscape:vp_z="1 : 0.5 : 1"
     inkscape:vp_y="0 : 1000 : 0"
     inkscape:vp_x="0 : 0.5 : 1"
     sodipodi:type="inkscape:persp3d" /><inkscape:perspective
     id="perspective2877"
     inkscape:persp3d-origin="0.5 : 0.33333333 : 1"
     inkscape:vp_z="1 : 0.5 : 1"
     inkscape:vp_y="0 : 1000 : 0"
     inkscape:vp_x="0 : 0.5 : 1"
     sodipodi:type="inkscape:persp3d" /></defs><sodipodi:namedview
   pagecolor="#ffffff"
   bordercolor="#666666"
   borderopacity="1"
   objecttolerance="10"
   gridtolerance="10"
   guidetolerance="10"
   inkscape:pageopacity="0"
   inkscape:pageshadow="2"
   inkscape:window-width="1615"
   inkscape:window-height="1021"
   id="namedview123"
   showgrid="false"
   inkscape:zoom="1"
   inkscape:cx="13.819061"
   inkscape:cy="16"
   inkscape:window-x="0"
   inkscape:window-y="0"
   inkscape:window-maximized="0"
   inkscape:current-layer="Layer_1" />


<rect
   style="fill:#cccccc;fill-opacity:1;stroke:#000000;stroke-width:2.44950747;stroke-miterlimit:4;stroke-opacity:1;stroke-dasharray:none"
   id="rect2989"
   width="44.955166"
   height="44.344994"
   x="1.6919105"
   y="1.8614024" /><g
   id="g63"
   transform="matrix(0.73635789,0,0,0.73635789,0.62464438,-0.11556355)">
	<path
   d="M 5.558,7.718 5.974,43.715 41.971,43.3 41.556,7.302 5.558,7.718 z m 34.182,15.606 0,0 0.012,1 0,0 0.092,7.999 0,0 0.012,1 0,0 0.093,8 0,0 -9.999,0.115 -1,0.012 -10,0.115 -1,0.012 -10,0.115 0,0 -0.3,-25.999 0,0 10,-0.115 1,-0.012 9.999,-0.115 1,-0.012 10,-0.115 0,0 0.091,8 z"
   id="path65"
   style="fill:#333333" />
	<path
   d="m 29.648,15.44 -1,0.012 0.093,8 -10,0.115 -0.092,-8 -1,0.012 0.092,8 -9.999,0.115 -0.093,-8 0,0 0.3,25.999 0,0 -0.092,-8 10,-0.115 0.092,8 1,-0.012 -0.092,-8 9.999,-0.115 0.093,8 1,-0.012 -0.093,-8 9.999,-0.115 -0.012,-1 -9.999,0.115 -0.093,-7.999 10,-0.115 -0.012,-1 -9.999,0.115 -0.092,-8 z m -11.802,17.137 -10,0.115 -0.092,-7.999 10,-0.115 0.092,7.999 z m 10.999,-0.127 -9.999,0.115 -0.092,-7.999 9.999,-0.115 0.092,7.999 z"
   id="path67"
   style="fill:#666666" />
	
		<rect
   x="7.9039998"
   y="33.633999"
   transform="matrix(-0.9999,0.0115,-0.0115,-0.9999,26.2404,75.1183)"
   width="10"
   height="8.0010004"
   id="rect69"
   style="fill:#ffffff" />
	
		<rect
   x="7.8000002"
   y="24.635"
   transform="matrix(-0.9999,0.0115,-0.0115,-0.9999,25.9287,57.1211)"
   width="10"
   height="8"
   id="rect71"
   style="fill:#ffffff" />
	
		<rect
   x="7.6960001"
   y="15.636"
   transform="matrix(-0.9999,0.0115,-0.0115,-0.9999,25.617,39.1244)"
   width="10"
   height="8"
   id="rect73"
   style="fill:#ffffff" />
	
		<rect
   x="18.903"
   y="33.507999"
   transform="matrix(-0.9999,0.0115,-0.0115,-0.9999,48.2373,74.7377)"
   width="10"
   height="8.0010004"
   id="rect75"
   style="fill:#ffffff" />
	
		<rect
   x="18.799"
   y="24.509001"
   transform="matrix(-0.9999,0.0115,-0.0115,-0.9999,47.9251,56.7404)"
   width="9.9989996"
   height="8"
   id="rect77"
   style="fill:#ffffff" />
	
		<rect
   x="18.695"
   y="15.509"
   transform="matrix(-0.9999,0.0115,-0.0115,-0.9999,47.6139,38.7437)"
   width="10"
   height="8"
   id="rect79"
   style="fill:#ffffff" />
	<rect
   x="39.902"
   y="33.323002"
   width="0"
   height="8.0010004"
   id="rect81"
   style="fill:#ffffff" />
	
		<rect
   x="29.903"
   y="33.381001"
   transform="matrix(-0.9999,0.0115,-0.0115,-0.9999,70.2331,74.357)"
   width="10"
   height="8.0010004"
   id="rect83"
   style="fill:#ffffff" />
	<rect
   x="39.798"
   y="24.323999"
   width="0"
   height="8"
   id="rect85"
   style="fill:#ffffff" />
	
		<rect
   x="29.798"
   y="24.382"
   transform="matrix(-0.9999,0.0115,-0.0115,-0.9999,69.9204,56.3598)"
   width="10.001"
   height="8"
   id="rect87"
   style="fill:#ffffff" />
	<rect
   x="39.694"
   y="15.324"
   width="0"
   height="8"
   id="rect89"
   style="fill:#ffffff" />
	
		<rect
   x="29.694"
   y="15.382"
   transform="matrix(-0.9999,0.0115,-0.0115,-0.9999,69.6097,38.3631)"
   width="10.001"
   height="8"
   id="rect91"
   style="fill:#ffffff" />
</g>

<text
   xml:space="preserve"
   style="font-size:40px;font-style:normal;font-weight:normal;fill:#000000;fill-opacity:1;stroke:none;font-family:OpenSymbol;-inkscape-font-specification:OpenSymbol"
   x="-30.200001"
   y="30"
   id="text2842"><tspan
     sodipodi:role="line"
     id="tspan2844" /></text>

<path
   style="fill:#f9f9f9;fill-opacity:1;stroke:#ffffff;stroke-width:0.40000001;stroke-miterlimit:4;stroke-opacity:1;stroke-dasharray:none"
   d="m 31.699061,43.018788 c 2.070308,-0.676994 3.480573,-1.496436 4.897943,-2.845976 1.587563,-1.511589 2.592339,-3.04797 3.244601,-4.961249 L 40.288734,33.9 l 0.0052,4.75 0.0052,4.75 -4.85,-0.01075 -4.85,-0.01076 1.1,-0.359701 z"
   id="path3312" /><path
   style="fill:#f9f9f9;fill-opacity:1;stroke:#b3b3b3;stroke-width:0.40000001000000002;stroke-miterlimit:4;stroke-opacity:1;stroke-dasharray:none"
   d="m 2.899061,24.1 0,-20.9 21.2,0 21.2,0 0,20.9 0,20.9 -21.2,0 -21.2,0 0,-20.9 z m 27.9,18.492226 c 4.182598,-1.285132 7.290604,-4.297174 8.556416,-8.292226 0.351238,-1.108544 0.443584,-1.878822 0.443584,-3.7 0,-2.684666 -0.41654,-4.302162 -1.643584,-6.382326 -1.702596,-2.886353 -5.056172,-5.24172 -8.451902,-5.93615 -0.822516,-0.168205 -1.542516,-0.353822 -1.6,-0.41248 -0.05748,-0.05866 0.653108,-0.07569 1.579088,-0.03785 l 1.683604,0.0688 -0.0503,-6.3 C 31.288295,8.135 31.244171,5.2784962 31.217907,5.2522136 31.111111,5.1453396 4.9013,5.5310944 4.7912342,5.6411602 4.7257336,5.7066608 4.7456988,11.686696 4.8356016,18.930126 L 4.999061,32.1 l 4.85,-0.07109 c 4.782108,-0.07009 4.85,-0.06534 4.85,0.339674 0,0.875172 1.034545,3.622846 1.82389,4.844118 1.937746,2.998068 4.933353,4.968652 8.791148,5.783032 1.30795,0.276108 3.891704,0.08603 5.484962,-0.40351 l 0,0 z"
   id="path3339" /><path
   style="fill:#b3b3b3;fill-opacity:1;stroke:#808080;stroke-width:0.40000001;stroke-miterlimit:4;stroke-opacity:1;stroke-dasharray:none"
   d="m 2.699061,24.1 0,-21.1 21.4,0 21.4,0 0,21.1 0,21.1 -21.4,0 -21.4,0 0,-21.1 z m 28.101208,18.290874 c 4.366816,-1.330692 7.711024,-4.866642 8.597912,-9.090874 0.898144,-4.277834 -0.279966,-8.338554 -3.27901,-11.302133 -1.44754,-1.430422 -3.525854,-2.756422 -4.82011,-3.075315 -0.275,-0.06776 -0.104382,0.05883 0.379154,0.281306 0.483534,0.222476 0.843534,0.4335 0.8,0.468941 -0.04354,0.03544 -2.374154,0.01106 -5.179154,-0.05418 l -5.1,-0.118619 1.2,-0.491466 c 1.03897,-0.425516 1.52206,-0.492612 3.6,-0.5 1.32,-0.0047 2.715,0.0555 3.1,0.133769 0.74777,0.152013 -0.613594,-0.288237 -1.7,-0.549761 l -0.6,-0.144435 0.6,-0.176325 c 0.33,-0.09698 1.06162,-0.121292 1.625822,-0.05403 0.60711,0.07238 1.07639,0.04047 1.149714,-0.07817 0.06814,-0.110255 0.06419,-2.923627 -0.0088,-6.251939 L 31.033159,5.3361706 20.61611,5.4699318 C 14.886733,5.5435004 9.006561,5.6615534 7.549061,5.7322718 l -2.65,0.128579 0,4.9367972 c 0,2.715239 0.059815,8.607512 0.1329232,13.09394 l 0.132923,8.157144 4.317077,-0.141224 c 4.5958218,-0.150342 5.4170768,-0.04791 5.4170768,0.675622 0,0.659194 1.004151,3.250114 1.721614,4.442124 1.515462,2.517824 4.823245,4.866252 7.979752,5.665386 1.576218,0.399052 4.346082,0.265128 6.199842,-0.299766 l 0,0 z"
   id="path3345" /><path
   sodipodi:type="arc"
   style="fill:#f1f1f1;fill-opacity:1;stroke:#808080;stroke-width:2;stroke-miterlimit:4;stroke-opacity:1;stroke-dasharray:none"
   id="path2835"
   sodipodi:cx="37.200001"
   sodipodi:cy="39.799999"
   sodipodi:rx="25.6"
   sodipodi:ry="23.799999"
   d="m 62.800001,39.799999 a 25.6,23.799999 0 1 1 -51.200001,0 25.6,23.799999 0 1 1 51.200001,0 z" /><path
   style="fill:none;stroke:#000000;stroke-width:2.07123137px;stroke-linecap:butt;stroke-linejoin:miter;stroke-opacity:1"
   d="m 37.275,19.05 0,3.9"
   id="path2867" /><path
   style="fill:none;stroke:#000000;stroke-width:2.07123137px;stroke-linecap:butt;stroke-linejoin:miter;stroke-opacity:1"
   d="m 14.75,39.5 3.9,0"
   id="path2867-7" /><path
   style="fill:none;stroke:#000000;stroke-width:1.15500736px;stroke-linecap:butt;stroke-linejoin:miter;stroke-opacity:1"
   d="M 36.522496,40.922496 24.077504,26.277504"
   id="path2891" /><path
   style="font-size:medium;font-style:normal;font-variant:normal;font-weight:normal;font-stretch:normal;text-indent:0;text-align:start;text-decoration:none;line-height:normal;letter-spacing:normal;word-spacing:normal;text-transform:none;direction:ltr;block-progression:tb;writing-mode:lr-tb;text-anchor:start;color:#000000;fill:#000000;fill-opacity:1;stroke:none;stroke-width:2;marker:none;visibility:visible;display:inline;overflow:visible;enable-background:accumulate;font-family:Bitstream Vera Sans;-inkscape-font-specification:Bitstream Vera Sans;stroke-miterlimit:4;stroke-dasharray:none;marker-start:none;marker-mid:none"
   d="m 43.45625,33.9125 -6.5125,5.89375 1.49375,1.2875 6.3125,-5.625 -1.29375,-1.55625 z"
   id="path2893"
   sodipodi:nodetypes="ccccc" />
<rect style="fill:#00ffc1; fill-opacity:0.7;" x="0" y="42 " width="48" height="6" />
</svg>
