<?xml version="1.0" encoding="UTF-8" standalone="no"?>
<!-- Generator: Adobe Illustrator 13.0.0, SVG Export Plug-In . SVG Version: 6.00 Build 14948)  -->

<svg
   xmlns:dc="http://purl.org/dc/elements/1.1/"
   xmlns:cc="http://creativecommons.org/ns#"
   xmlns:rdf="http://www.w3.org/1999/02/22-rdf-syntax-ns#"
   xmlns:svg="http://www.w3.org/2000/svg"
   xmlns="http://www.w3.org/2000/svg"
   xmlns:sodipodi="http://sodipodi.sourceforge.net/DTD/sodipodi-0.dtd"
   xmlns:inkscape="http://www.inkscape.org/namespaces/inkscape"
   version="1.1"
   id="Layer_1"
   x="0px"
   y="0px"
   width="48px"
   height="48px"
   viewBox="0 0 48 48"
   enable-background="new 0 0 48 48"
   xml:space="preserve"
   inkscape:version="0.47 r22583"
   sodipodi:docname="UTPatternTimeLine.svg"><metadata
   id="metadata127"><rdf:RDF><cc:Work
       rdf:about=""><dc:format>image/svg+xml</dc:format><dc:type
         rdf:resource="http://purl.org/dc/dcmitype/StillImage" /></cc:Work></rdf:RDF></metadata><defs
   id="defs125"><marker
     inkscape:stockid="Arrow1Lend"
     orient="auto"
     refY="0.0"
     refX="0.0"
     id="Arrow1Lend"
     style="overflow:visible;"><path
       id="path3844"
       d="M 0.0,0.0 L 5.0,-5.0 L -12.5,0.0 L 5.0,5.0 L 0.0,0.0 z "
       style="fill-rule:evenodd;stroke:#000000;stroke-width:1.0pt;marker-start:none;"
       transform="scale(0.8) rotate(180) translate(12.5,0)" /></marker><marker
     inkscape:stockid="Arrow1Lstart"
     orient="auto"
     refY="0.0"
     refX="0.0"
     id="Arrow1Lstart"
     style="overflow:visible"><path
       id="path3841"
       d="M 0.0,0.0 L 5.0,-5.0 L -12.5,0.0 L 5.0,5.0 L 0.0,0.0 z "
       style="fill-rule:evenodd;stroke:#000000;stroke-width:1.0pt;marker-start:none"
       transform="scale(0.8) translate(12.5,0)" /></marker><inkscape:perspective
     sodipodi:type="inkscape:persp3d"
     inkscape:vp_x="0 : 24 : 1"
     inkscape:vp_y="0 : 1000 : 0"
     inkscape:vp_z="48 : 24 : 1"
     inkscape:persp3d-origin="24 : 16 : 1"
     id="perspective129" /><inkscape:perspective
     id="perspective3292"
     inkscape:persp3d-origin="0.5 : 0.33333333 : 1"
     inkscape:vp_z="1 : 0.5 : 1"
     inkscape:vp_y="0 : 1000 : 0"
     inkscape:vp_x="0 : 0.5 : 1"
     sodipodi:type="inkscape:persp3d" /><inkscape:perspective
     id="perspective3306"
     inkscape:persp3d-origin="0.5 : 0.33333333 : 1"
     inkscape:vp_z="1 : 0.5 : 1"
     inkscape:vp_y="0 : 1000 : 0"
     inkscape:vp_x="0 : 0.5 : 1"
     sodipodi:type="inkscape:persp3d" /><inkscape:perspective
     id="perspective2853"
     inkscape:persp3d-origin="0.5 : 0.33333333 : 1"
     inkscape:vp_z="1 : 0.5 : 1"
     inkscape:vp_y="0 : 1000 : 0"
     inkscape:vp_x="0 : 0.5 : 1"
     sodipodi:type="inkscape:persp3d" /><inkscape:perspective
     id="perspective2877"
     inkscape:persp3d-origin="0.5 : 0.33333333 : 1"
     inkscape:vp_z="1 : 0.5 : 1"
     inkscape:vp_y="0 : 1000 : 0"
     inkscape:vp_x="0 : 0.5 : 1"
     sodipodi:type="inkscape:persp3d" /><inkscape:perspective
     id="perspective2851"
     inkscape:persp3d-origin="0.5 : 0.33333333 : 1"
     inkscape:vp_z="1 : 0.5 : 1"
     inkscape:vp_y="0 : 1000 : 0"
     inkscape:vp_x="0 : 0.5 : 1"
     sodipodi:type="inkscape:persp3d" /><inkscape:perspective
     id="perspective2851-7"
     inkscape:persp3d-origin="0.5 : 0.33333333 : 1"
     inkscape:vp_z="1 : 0.5 : 1"
     inkscape:vp_y="0 : 1000 : 0"
     inkscape:vp_x="0 : 0.5 : 1"
     sodipodi:type="inkscape:persp3d" /><inkscape:perspective
     id="perspective2897"
     inkscape:persp3d-origin="0.5 : 0.33333333 : 1"
     inkscape:vp_z="1 : 0.5 : 1"
     inkscape:vp_y="0 : 1000 : 0"
     inkscape:vp_x="0 : 0.5 : 1"
     sodipodi:type="inkscape:persp3d" /><inkscape:perspective
     id="perspective2897-9"
     inkscape:persp3d-origin="0.5 : 0.33333333 : 1"
     inkscape:vp_z="1 : 0.5 : 1"
     inkscape:vp_y="0 : 1000 : 0"
     inkscape:vp_x="0 : 0.5 : 1"
     sodipodi:type="inkscape:persp3d" /><inkscape:perspective
     id="perspective2930"
     inkscape:persp3d-origin="0.5 : 0.33333333 : 1"
     inkscape:vp_z="1 : 0.5 : 1"
     inkscape:vp_y="0 : 1000 : 0"
     inkscape:vp_x="0 : 0.5 : 1"
     sodipodi:type="inkscape:persp3d" /><inkscape:perspective
     id="perspective2930-8"
     inkscape:persp3d-origin="0.5 : 0.33333333 : 1"
     inkscape:vp_z="1 : 0.5 : 1"
     inkscape:vp_y="0 : 1000 : 0"
     inkscape:vp_x="0 : 0.5 : 1"
     sodipodi:type="inkscape:persp3d" /><inkscape:perspective
     id="perspective2930-4"
     inkscape:persp3d-origin="0.5 : 0.33333333 : 1"
     inkscape:vp_z="1 : 0.5 : 1"
     inkscape:vp_y="0 : 1000 : 0"
     inkscape:vp_x="0 : 0.5 : 1"
     sodipodi:type="inkscape:persp3d" /><inkscape:perspective
     id="perspective2930-5"
     inkscape:persp3d-origin="0.5 : 0.33333333 : 1"
     inkscape:vp_z="1 : 0.5 : 1"
     inkscape:vp_y="0 : 1000 : 0"
     inkscape:vp_x="0 : 0.5 : 1"
     sodipodi:type="inkscape:persp3d" /><inkscape:perspective
     id="perspective2981"
     inkscape:persp3d-origin="0.5 : 0.33333333 : 1"
     inkscape:vp_z="1 : 0.5 : 1"
     inkscape:vp_y="0 : 1000 : 0"
     inkscape:vp_x="0 : 0.5 : 1"
     sodipodi:type="inkscape:persp3d" /><inkscape:perspective
     id="perspective2981-1"
     inkscape:persp3d-origin="0.5 : 0.33333333 : 1"
     inkscape:vp_z="1 : 0.5 : 1"
     inkscape:vp_y="0 : 1000 : 0"
     inkscape:vp_x="0 : 0.5 : 1"
     sodipodi:type="inkscape:persp3d" /><inkscape:perspective
     id="perspective2981-5"
     inkscape:persp3d-origin="0.5 : 0.33333333 : 1"
     inkscape:vp_z="1 : 0.5 : 1"
     inkscape:vp_y="0 : 1000 : 0"
     inkscape:vp_x="0 : 0.5 : 1"
     sodipodi:type="inkscape:persp3d" /><inkscape:perspective
     id="perspective3021"
     inkscape:persp3d-origin="0.5 : 0.33333333 : 1"
     inkscape:vp_z="1 : 0.5 : 1"
     inkscape:vp_y="0 : 1000 : 0"
     inkscape:vp_x="0 : 0.5 : 1"
     sodipodi:type="inkscape:persp3d" /><inkscape:perspective
     id="perspective3043"
     inkscape:persp3d-origin="0.5 : 0.33333333 : 1"
     inkscape:vp_z="1 : 0.5 : 1"
     inkscape:vp_y="0 : 1000 : 0"
     inkscape:vp_x="0 : 0.5 : 1"
     sodipodi:type="inkscape:persp3d" /><inkscape:perspective
     id="perspective3043-1"
     inkscape:persp3d-origin="0.5 : 0.33333333 : 1"
     inkscape:vp_z="1 : 0.5 : 1"
     inkscape:vp_y="0 : 1000 : 0"
     inkscape:vp_x="0 : 0.5 : 1"
     sodipodi:type="inkscape:persp3d" /></defs><sodipodi:namedview
   pagecolor="#ffffff"
   bordercolor="#666666"
   borderopacity="1"
   objecttolerance="10"
   gridtolerance="10"
   guidetolerance="10"
   inkscape:pageopacity="0"
   inkscape:pageshadow="2"
   inkscape:window-width="1615"
   inkscape:window-height="1021"
   id="namedview123"
   showgrid="false"
   inkscape:zoom="1"
   inkscape:cx="23.931167"
   inkscape:cy="26.131204"
   inkscape:window-x="0"
   inkscape:window-y="0"
   inkscape:window-maximized="0"
   inkscape:current-layer="Layer_1" />


<rect
   style="fill:#cccccc;fill-opacity:1;stroke:#000000;stroke-width:2.44950747;stroke-miterlimit:4;stroke-opacity:1;stroke-dasharray:none"
   id="rect2989"
   width="44.955166"
   height="44.344994"
   x="1.6919105"
   y="1.8614024" /><g
   id="g63"
   transform="matrix(0.73635789,0,0,0.73635789,-15.625356,5.7594365)">
	<path
   d="M 5.558,7.718 5.974,43.715 41.971,43.3 41.556,7.302 5.558,7.718 z m 34.182,15.606 0,0 0.012,1 0,0 0.092,7.999 0,0 0.012,1 0,0 0.093,8 0,0 -9.999,0.115 -1,0.012 -10,0.115 -1,0.012 -10,0.115 0,0 -0.3,-25.999 0,0 10,-0.115 1,-0.012 9.999,-0.115 1,-0.012 10,-0.115 0,0 0.091,8 z"
   id="path65"
   style="fill:#333333" />
	<path
   d="m 29.648,15.44 -1,0.012 0.093,8 -10,0.115 -0.092,-8 -1,0.012 0.092,8 -9.999,0.115 -0.093,-8 0,0 0.3,25.999 0,0 -0.092,-8 10,-0.115 0.092,8 1,-0.012 -0.092,-8 9.999,-0.115 0.093,8 1,-0.012 -0.093,-8 9.999,-0.115 -0.012,-1 -9.999,0.115 -0.093,-7.999 10,-0.115 -0.012,-1 -9.999,0.115 -0.092,-8 z m -11.802,17.137 -10,0.115 -0.092,-7.999 10,-0.115 0.092,7.999 z m 10.999,-0.127 -9.999,0.115 -0.092,-7.999 9.999,-0.115 0.092,7.999 z"
   id="path67"
   style="fill:#666666" />
	
		<rect
   x="7.9039998"
   y="33.633999"
   transform="matrix(-0.9999,0.0115,-0.0115,-0.9999,26.2404,75.1183)"
   width="10"
   height="8.0010004"
   id="rect69"
   style="fill:#ffffff" />
	
		<rect
   x="7.8000002"
   y="24.635"
   transform="matrix(-0.9999,0.0115,-0.0115,-0.9999,25.9287,57.1211)"
   width="10"
   height="8"
   id="rect71"
   style="fill:#ffffff" />
	
		<rect
   x="7.6960001"
   y="15.636"
   transform="matrix(-0.9999,0.0115,-0.0115,-0.9999,25.617,39.1244)"
   width="10"
   height="8"
   id="rect73"
   style="fill:#ffffff" />
	
		<rect
   x="18.903"
   y="33.507999"
   transform="matrix(-0.9999,0.0115,-0.0115,-0.9999,48.2373,74.7377)"
   width="10"
   height="8.0010004"
   id="rect75"
   style="fill:#ffffff" />
	
		<rect
   x="18.799"
   y="24.509001"
   transform="matrix(-0.9999,0.0115,-0.0115,-0.9999,47.9251,56.7404)"
   width="9.9989996"
   height="8"
   id="rect77"
   style="fill:#ffffff" />
	
		<rect
   x="18.695"
   y="15.509"
   transform="matrix(-0.9999,0.0115,-0.0115,-0.9999,47.6139,38.7437)"
   width="10"
   height="8"
   id="rect79"
   style="fill:#ffffff" />
	<rect
   x="39.902"
   y="33.323002"
   width="0"
   height="8.0010004"
   id="rect81"
   style="fill:#ffffff" />
	
		<rect
   x="29.903"
   y="33.381001"
   transform="matrix(-0.9999,0.0115,-0.0115,-0.9999,70.2331,74.357)"
   width="10"
   height="8.0010004"
   id="rect83"
   style="fill:#ffffff" />
	<rect
   x="39.798"
   y="24.323999"
   width="0"
   height="8"
   id="rect85"
   style="fill:#ffffff" />
	
		<rect
   x="29.798"
   y="24.382"
   transform="matrix(-0.9999,0.0115,-0.0115,-0.9999,69.9204,56.3598)"
   width="10.001"
   height="8"
   id="rect87"
   style="fill:#ffffff" />
	<rect
   x="39.694"
   y="15.324"
   width="0"
   height="8"
   id="rect89"
   style="fill:#ffffff" />
	
		<rect
   x="29.694"
   y="15.382"
   transform="matrix(-0.9999,0.0115,-0.0115,-0.9999,69.6097,38.3631)"
   width="10.001"
   height="8"
   id="rect91"
   style="fill:#ffffff" />
</g>

<text
   xml:space="preserve"
   style="font-size:40px;font-style:normal;font-weight:normal;fill:#000000;fill-opacity:1;stroke:none;font-family:OpenSymbol;-inkscape-font-specification:OpenSymbol"
   x="-30.200001"
   y="30"
   id="text2842"><tspan
     sodipodi:role="line"
     id="tspan2844" /></text>



<path
   style="fill:none;stroke:#000000;stroke-width:0.39872053;stroke-linecap:butt;stroke-linejoin:miter;stroke-miterlimit:4;stroke-opacity:1;stroke-dasharray:none;marker-start:url(#Arrow1Lstart);marker-end:url(#Arrow1Lend)"
   d="m 18.040896,10.945793 0.02782,11.388297 25.318572,0"
   id="path2841-1"
   sodipodi:nodetypes="ccc" /><path
   style="fill:none;stroke:#000000;stroke-width:0.39872053;stroke-linecap:butt;stroke-linejoin:miter;stroke-miterlimit:4;stroke-opacity:1;stroke-dasharray:none;marker-start:url(#Arrow1Lstart);marker-end:url(#Arrow1Lend)"
   d="m 18.096541,30.468587 0.02782,11.388297 25.318572,0"
   id="path2841-4"
   sodipodi:nodetypes="ccc" /><rect
   style="fill:#f1f1f1;fill-opacity:1;stroke:#808080;stroke-width:2.65813684;stroke-miterlimit:4;stroke-opacity:1;stroke-dasharray:none"
   id="rect2874-0"
   width="1.7806469"
   height="3.9680476"
   x="29.100382"
   y="15.528888" /><rect
   style="fill:#f1f1f1;fill-opacity:1;stroke:#808080;stroke-width:2.65813684;stroke-miterlimit:4;stroke-opacity:1;stroke-dasharray:none"
   id="rect2874-4"
   width="1.7806469"
   height="3.9680476"
   x="24.760056"
   y="35.131042" /><rect
   style="fill:#ececec;fill-opacity:1;stroke:#ececec;stroke-width:2.65813684;stroke-miterlimit:4;stroke-opacity:1;stroke-dasharray:none"
   id="rect2920-2"
   width="1.9475825"
   height="7.1424856"
   x="24.454008"
   y="12.27509" /><rect
   style="fill:#ececec;fill-opacity:1;stroke:#ececec;stroke-width:2.65813684;stroke-miterlimit:4;stroke-opacity:1;stroke-dasharray:none"
   id="rect2920-5"
   width="1.9475825"
   height="7.1424856"
   x="29.350786"
   y="31.877245" /><rect
   style="fill:#ececec;fill-opacity:1;stroke:#ececec;stroke-width:2.65813684;stroke-miterlimit:4;stroke-opacity:1;stroke-dasharray:none"
   id="rect2920-1"
   width="1.9475825"
   height="7.1424856"
   x="34.247562"
   y="31.877245" /><rect
   style="fill:#000000;fill-opacity:1;stroke:#000000;stroke-width:2.65813684;stroke-miterlimit:4;stroke-opacity:1;stroke-dasharray:none"
   id="rect2971-7"
   width="4.4516172"
   height="3.0950773"
   x="33.496353"
   y="16.282818" /><rect
   style="fill:#000000;fill-opacity:1;stroke:#000000;stroke-width:2.10468006;stroke-miterlimit:4;stroke-opacity:1;stroke-dasharray:none"
   id="rect2971-1"
   width="2.2997324"
   height="3.7560341"
   x="19.965427"
   y="35.792572" /><rect
   style="fill:#000000;fill-opacity:1;stroke:#000000;stroke-width:2.04399514;stroke-miterlimit:4;stroke-opacity:1;stroke-dasharray:none"
   id="rect2971-2"
   width="2.1279669"
   height="3.8285067"
   x="19.661795"
   y="15.995461" /><rect
   style="fill:#f1f1f1;fill-opacity:1;stroke:#808080;stroke-width:2.65813684;stroke-miterlimit:4;stroke-opacity:1;stroke-dasharray:none"
   id="rect2874-0-6"
   width="1.7806469"
   height="3.9680476"
   x="40.674587"
   y="15.211446" /><rect
   style="fill:#f1f1f1;fill-opacity:1;stroke:#808080;stroke-width:2.65813684;stroke-miterlimit:4;stroke-opacity:1;stroke-dasharray:none"
   id="rect2874-0-4"
   width="1.7806469"
   height="3.9680476"
   x="39.172161"
   y="34.892963" /><path
   style="fill:none;stroke:#000000;stroke-width:1px;stroke-linecap:butt;stroke-linejoin:miter;stroke-opacity:1"
   d="m 29.9,11.4 11.7,0"
   id="path2869" /><path
   style="fill:none;stroke:#000000;stroke-width:1px;stroke-linecap:butt;stroke-linejoin:miter;stroke-opacity:1"
   d="m 20.5,30.9 9.7,-0.1"
   id="path2871" /><path
   style="fill:none;stroke:#000000;stroke-width:1px;stroke-linecap:butt;stroke-linejoin:miter;stroke-opacity:1"
   d="m 35.2,30.5 5.2,-0.1"
   id="path2875" />
<rect style="fill:#00ff3e; fill-opacity:0.7;" x="0" y="42 " width="48" height="6" />
</svg>
