<?xml version="1.0" encoding="UTF-8" standalone="no"?>
<!-- Generator: Adobe Illustrator 13.0.0, SVG Export Plug-In . SVG Version: 6.00 Build 14948)  -->

<svg
   xmlns:dc="http://purl.org/dc/elements/1.1/"
   xmlns:cc="http://creativecommons.org/ns#"
   xmlns:rdf="http://www.w3.org/1999/02/22-rdf-syntax-ns#"
   xmlns:svg="http://www.w3.org/2000/svg"
   xmlns="http://www.w3.org/2000/svg"
   xmlns:sodipodi="http://sodipodi.sourceforge.net/DTD/sodipodi-0.dtd"
   xmlns:inkscape="http://www.inkscape.org/namespaces/inkscape"
   version="1.1"
   id="Layer_1"
   x="0px"
   y="0px"
   width="48px"
   height="48px"
   viewBox="0 0 48 48"
   enable-background="new 0 0 48 48"
   xml:space="preserve"
   inkscape:version="0.91 r13725"
   sodipodi:docname="OWUTSample.svg"><metadata
   id="metadata127"><rdf:RDF><cc:Work
       rdf:about=""><dc:format>image/svg+xml</dc:format><dc:type
         rdf:resource="http://purl.org/dc/dcmitype/StillImage" /></cc:Work></rdf:RDF></metadata><defs
   id="defs125">
	
	
	
		
	
		
	
		
	
		
	
		
	
		
	
	
		
	
	
		
	
	
		
</defs><sodipodi:namedview
   pagecolor="#ffffff"
   bordercolor="#666666"
   borderopacity="1"
   objecttolerance="10"
   gridtolerance="10"
   guidetolerance="10"
   inkscape:pageopacity="0"
   inkscape:pageshadow="2"
   inkscape:window-width="1605"
   inkscape:window-height="1038"
   id="namedview123"
   showgrid="false"
   inkscape:zoom="1.52"
   inkscape:cx="24"
   inkscape:cy="24"
   inkscape:window-x="0"
   inkscape:window-y="0"
   inkscape:window-maximized="0"
   inkscape:current-layer="Layer_1" />
<g
   id="g3"
   transform="translate(5.8983051,0)">
	<path
   d="M 9.756,3.169 10.172,39.166 46.17,38.751 45.753,2.753 9.756,3.169 Z m 34.182,15.606 0,0 0.011,1 0,0 0.093,7.999 0,0 0.012,1 0,0 0.092,8 0,0 -9.999,0.115 -1,0.012 -9.999,0.115 -1,0.012 -10,0.115 0,0 -0.3,-25.999 0,0 10,-0.115 1,-0.012 10,-0.115 1,-0.012 9.999,-0.115 0,0 0.091,8 z"
   id="path5"
   inkscape:connector-curvature="0"
   style="fill:#333333" />
	<path
   d="m 33.847,10.891 -1,0.012 0.092,8 -9.999,0.115 -0.092,-8 -1,0.012 0.092,8 -9.999,0.115 -0.093,-8 0,0 0.3,25.999 0,0 -0.092,-8 10,-0.115 0.092,8 1,-0.012 -0.093,-8 10,-0.115 0.092,8 1,-0.012 -0.092,-8 9.999,-0.115 -0.012,-1 -9.999,0.115 -0.093,-7.999 9.999,-0.115 -0.011,-1 -10,0.115 -0.091,-8 z m -11.804,17.137 -10,0.116 -0.092,-8 10,-0.115 0.092,7.999 z m 11,-0.127 -10,0.115 -0.092,-7.999 9.999,-0.115 0.093,7.999 z"
   id="path7"
   inkscape:connector-curvature="0"
   style="fill:#666666" />
	
		<rect
   x="12.101"
   y="29.086"
   transform="matrix(-0.9999,0.0115,-0.0115,-0.9999,34.5832,65.9726)"
   width="10"
   height="8.0010004"
   id="rect9"
   style="fill:#ffffff" />
	
		<rect
   x="11.997"
   y="20.087"
   transform="matrix(-0.9999,0.0115,-0.0115,-0.9999,34.2715,47.9754)"
   width="10"
   height="8"
   id="rect11"
   style="fill:#ffffff" />
	
		<rect
   x="11.893"
   y="11.087"
   transform="matrix(-0.9999,0.0115,-0.0115,-0.9999,33.9598,29.9786)"
   width="10"
   height="8"
   id="rect13"
   style="fill:#ffffff" />
	
		<rect
   x="23.1"
   y="28.959"
   transform="matrix(-0.9999,0.0115,-0.0115,-0.9999,56.5791,65.592)"
   width="10.001"
   height="8.0010004"
   id="rect15"
   style="fill:#ffffff" />
	
		<rect
   x="22.997"
   y="19.959999"
   transform="matrix(-0.9999,0.0115,-0.0115,-0.9999,56.2684,47.5947)"
   width="10"
   height="8"
   id="rect17"
   style="fill:#ffffff" />
	
		<rect
   x="22.893"
   y="10.96"
   transform="matrix(-0.9999,0.0115,-0.0115,-0.9999,55.9562,29.598)"
   width="10"
   height="8"
   id="rect19"
   style="fill:#ffffff" />
	<rect
   x="44.099998"
   y="28.774"
   width="0"
   height="8.0010004"
   id="rect21"
   style="fill:#ffffff" />
	
		<rect
   x="34.099998"
   y="28.832001"
   transform="matrix(-0.9999,0.0115,-0.0115,-0.9999,78.576,65.2113)"
   width="10"
   height="8.0010004"
   id="rect23"
   style="fill:#ffffff" />
	<rect
   x="43.995998"
   y="19.775"
   width="0"
   height="8"
   id="rect25"
   style="fill:#ffffff" />
	
		<rect
   x="33.995998"
   y="19.833"
   transform="matrix(-0.9999,0.0115,-0.0115,-0.9999,78.2642,47.2141)"
   width="10"
   height="8"
   id="rect27"
   style="fill:#ffffff" />
	<rect
   x="43.891998"
   y="10.776"
   width="0"
   height="8"
   id="rect29"
   style="fill:#ffffff" />
	
		<rect
   x="33.893002"
   y="10.833"
   transform="matrix(-0.9999,0.0115,-0.0115,-0.9999,77.9535,29.2173)"
   width="10"
   height="8"
   id="rect31"
   style="fill:#ffffff" />
</g>
<g
   id="g33"
   transform="translate(5.8983051,0)">
	<path
   d="M 7.779,5.192 8.195,41.19 44.193,40.774 43.776,4.776 7.779,5.192 Z m 34.182,15.606 0,0 0.012,1 0,0 0.093,8 0,0 0.012,1 0,0 0.092,7.999 0,0 -9.999,0.115 -1,0.012 -10,0.115 -1,0.012 -9.999,0.115 0,0 -0.3,-25.998 0,0 10,-0.115 1,-0.012 10,-0.115 0.999,-0.012 10,-0.115 0,0 0.09,7.999 z"
   id="path35"
   inkscape:connector-curvature="0"
   style="fill:#333333" />
	<path
   d="m 31.869,12.914 -0.999,0.012 0.092,8 -9.999,0.115 -0.093,-8 -1,0.012 0.092,8 -10,0.115 -0.092,-8 0,0 0.3,25.998 0,0 -0.092,-7.999 9.999,-0.115 0.092,7.999 1,-0.012 -0.092,-7.999 9.999,-0.115 0.093,7.999 1,-0.012 -0.093,-7.999 10,-0.115 -0.012,-1 -10,0.115 -0.092,-7.999 9.999,-0.116 -0.012,-1 -9.999,0.115 -0.091,-7.999 z m -11.802,17.138 -10,0.115 -0.092,-7.999 9.999,-0.116 0.093,8 z m 10.999,-0.127 -10,0.115 -0.092,-7.999 10,-0.116 0.092,8 z"
   id="path37"
   inkscape:connector-curvature="0"
   style="fill:#666666" />
	
		<rect
   x="10.125"
   y="31.108999"
   transform="matrix(-0.9999,0.0115,-0.0115,-0.9999,30.6531,70.0411)"
   width="10"
   height="8"
   id="rect39"
   style="fill:#ffffff" />
	
		<rect
   x="10.021"
   y="22.110001"
   transform="matrix(-0.9999,0.0116,-0.0116,-0.9999,30.3444,52.0434)"
   width="10"
   height="8.0010004"
   id="rect41"
   style="fill:#ffffff" />
	
		<rect
   x="9.9169998"
   y="13.11"
   transform="matrix(-0.9999,0.0115,-0.0115,-0.9999,30.0302,34.0472)"
   width="10"
   height="8"
   id="rect43"
   style="fill:#ffffff" />
	
		<rect
   x="21.124001"
   y="30.982"
   transform="matrix(-0.9999,0.0115,-0.0115,-0.9999,52.6494,69.6605)"
   width="10"
   height="8"
   id="rect45"
   style="fill:#ffffff" />
	
		<rect
   x="21.02"
   y="21.983"
   transform="matrix(-0.9999,0.0116,-0.0116,-0.9999,52.3407,51.6617)"
   width="10"
   height="8.0010004"
   id="rect47"
   style="fill:#ffffff" />
	
		<rect
   x="20.916"
   y="12.983"
   transform="matrix(-0.9999,0.0115,-0.0115,-0.9999,52.026,33.6666)"
   width="10.001"
   height="8"
   id="rect49"
   style="fill:#ffffff" />
	<rect
   x="42.123001"
   y="30.798"
   width="0"
   height="8"
   id="rect51"
   style="fill:#ffffff" />
	
		<rect
   x="32.123001"
   y="30.855"
   transform="matrix(-0.9999,0.0115,-0.0115,-0.9999,74.6452,69.2799)"
   width="10.001"
   height="8"
   id="rect53"
   style="fill:#ffffff" />
	<rect
   x="42.019001"
   y="21.798"
   width="0"
   height="8.0010004"
   id="rect55"
   style="fill:#ffffff" />
	
		<rect
   x="32.02"
   y="21.856001"
   transform="matrix(-0.9999,0.0116,-0.0116,-0.9999,74.337,51.28)"
   width="10"
   height="8.0010004"
   id="rect57"
   style="fill:#ffffff" />
	<rect
   x="41.915001"
   y="12.799"
   width="0"
   height="8"
   id="rect59"
   style="fill:#ffffff" />
	
		<rect
   x="31.915001"
   y="12.856"
   transform="matrix(-0.9999,0.0115,-0.0115,-0.9999,74.0219,33.2859)"
   width="10.001"
   height="8"
   id="rect61"
   style="fill:#ffffff" />
</g>
<g
   id="g63"
   transform="translate(5.8983051,0)">
	<path
   d="M 5.558,7.718 5.974,43.715 41.971,43.3 41.556,7.302 5.558,7.718 Z m 34.182,15.606 0,0 0.012,1 0,0 0.092,7.999 0,0 0.012,1 0,0 0.093,8 0,0 -9.999,0.115 -1,0.012 -10,0.115 -1,0.012 -10,0.115 0,0 -0.3,-25.999 0,0 10,-0.115 1,-0.012 9.999,-0.115 1,-0.012 10,-0.115 0,0 0.091,8 z"
   id="path65"
   inkscape:connector-curvature="0"
   style="fill:#333333" />
	<path
   d="m 29.648,15.44 -1,0.012 0.093,8 -10,0.115 -0.092,-8 -1,0.012 0.092,8 -9.999,0.115 -0.093,-8 0,0 0.3,25.999 0,0 -0.092,-8 10,-0.115 0.092,8 1,-0.012 -0.092,-8 9.999,-0.115 0.093,8 1,-0.012 -0.093,-8 9.999,-0.115 -0.012,-1 -9.999,0.115 -0.093,-7.999 10,-0.115 -0.012,-1 -9.999,0.115 -0.092,-8 z m -11.802,17.137 -10,0.115 -0.092,-7.999 10,-0.115 0.092,7.999 z m 10.999,-0.127 -9.999,0.115 -0.092,-7.999 9.999,-0.115 0.092,7.999 z"
   id="path67"
   inkscape:connector-curvature="0"
   style="fill:#666666" />
	
		<rect
   x="7.9039998"
   y="33.633999"
   transform="matrix(-0.9999,0.0115,-0.0115,-0.9999,26.2404,75.1183)"
   width="10"
   height="8.0010004"
   id="rect69"
   style="fill:#ffffff" />
	
		<rect
   x="7.8000002"
   y="24.635"
   transform="matrix(-0.9999,0.0115,-0.0115,-0.9999,25.9287,57.1211)"
   width="10"
   height="8"
   id="rect71"
   style="fill:#ffffff" />
	
		<rect
   x="7.6960001"
   y="15.636"
   transform="matrix(-0.9999,0.0115,-0.0115,-0.9999,25.617,39.1244)"
   width="10"
   height="8"
   id="rect73"
   style="fill:#ffffff" />
	
		<rect
   x="18.903"
   y="33.507999"
   transform="matrix(-0.9999,0.0115,-0.0115,-0.9999,48.2373,74.7377)"
   width="10"
   height="8.0010004"
   id="rect75"
   style="fill:#ffffff" />
	
		<rect
   x="18.799"
   y="24.509001"
   transform="matrix(-0.9999,0.0115,-0.0115,-0.9999,47.9251,56.7404)"
   width="9.9989996"
   height="8"
   id="rect77"
   style="fill:#ffffff" />
	
		<rect
   x="18.695"
   y="15.509"
   transform="matrix(-0.9999,0.0115,-0.0115,-0.9999,47.6139,38.7437)"
   width="10"
   height="8"
   id="rect79"
   style="fill:#ffffff" />
	<rect
   x="39.902"
   y="33.323002"
   width="0"
   height="8.0010004"
   id="rect81"
   style="fill:#ffffff" />
	
		<rect
   x="29.903"
   y="33.381001"
   transform="matrix(-0.9999,0.0115,-0.0115,-0.9999,70.2331,74.357)"
   width="10"
   height="8.0010004"
   id="rect83"
   style="fill:#ffffff" />
	<rect
   x="39.798"
   y="24.323999"
   width="0"
   height="8"
   id="rect85"
   style="fill:#ffffff" />
	
		<rect
   x="29.798"
   y="24.382"
   transform="matrix(-0.9999,0.0115,-0.0115,-0.9999,69.9204,56.3598)"
   width="10.001"
   height="8"
   id="rect87"
   style="fill:#ffffff" />
	<rect
   x="39.694"
   y="15.324"
   width="0"
   height="8"
   id="rect89"
   style="fill:#ffffff" />
	
		<rect
   x="29.694"
   y="15.382"
   transform="matrix(-0.9999,0.0115,-0.0115,-0.9999,69.6097,38.3631)"
   width="10.001"
   height="8"
   id="rect91"
   style="fill:#ffffff" />
</g>
<path
   style="fill:#333333"
   inkscape:connector-curvature="0"
   id="path95"
   d="m 8.7293051,9.749 0.416,35.998 35.9979999,-0.416 -0.416,-35.998 -35.9979999,0.416 z m 34.1829999,15.606 0,0 0.012,1 0,0 0.092,8 0,0 0.012,0.999 0,0 0.093,8 0,0 -9.999,0.115 -1,0.012 -10,0.115 -1,0.012 -9.999,0.115 0,0 -0.3,-25.998 0,0 10,-0.115 1,-0.012 9.999,-0.116 1,-0.011 9.999,-0.116 0,0 0.091,8 z" /><path
   style="fill:#666666"
   inkscape:connector-curvature="0"
   id="path97"
   d="m 32.820305,17.472 -1,0.011 0.092,8 -9.999,0.115 -0.092,-7.999 -1,0.012 0.092,7.999 -10,0.115 -0.092,-7.999 0,0 0.3,25.998 0,0 -0.092,-7.999 9.999,-0.115 0.092,7.999 1,-0.012 -0.092,-7.999 10,-0.116 0.093,8 1,-0.012 -0.093,-7.999 9.999,-0.116 -0.012,-0.999 -9.999,0.115 -0.093,-8 10,-0.115 -0.012,-1 -10,0.115 -0.091,-7.999 z m -11.803,17.137 -10,0.115 -0.092,-8 9.999,-0.115 0.093,8 z m 10.999,-0.127 -9.999,0.115 -0.093,-8 9.999,-0.115 0.093,8 z" /><rect
   style="fill:#cccccc"
   id="rect99"
   height="7.9997292"
   width="9.9996614"
   transform="matrix(-0.99993387,0.01150039,-0.01150039,-0.99993387,0,0)"
   y="-43.849232"
   x="-20.619133" /><rect
   style="fill:#ffffff"
   id="rect101"
   height="8.0007296"
   width="9.9996614"
   transform="matrix(-0.99993387,0.01150039,-0.01150039,-0.99993387,0,0)"
   y="-34.849339"
   x="-20.618925" /><rect
   style="fill:#cccccc"
   id="rect103"
   height="7.9997292"
   width="9.9996614"
   transform="matrix(-0.99993387,0.01150039,-0.01150039,-0.99993387,0,0)"
   y="-25.848337"
   x="-20.618217" /><rect
   style="fill:#cccccc"
   id="rect105"
   height="8.0007391"
   width="9.9996729"
   transform="matrix(-0.99993271,0.01160038,-0.01160038,-0.99993271,0,0)"
   y="-43.852203"
   x="-31.616194" /><rect
   style="fill:#ffffff"
   id="rect107"
   height="8.0007296"
   width="9.9996614"
   transform="matrix(-0.99993387,0.01150039,-0.01150039,-0.99993387,0,0)"
   y="-34.848618"
   x="-31.61912" /><rect
   style="fill:#cccccc"
   id="rect109"
   height="7.9997382"
   width="9.9996729"
   transform="matrix(-0.99993271,0.01160038,-0.01160038,-0.99993271,0,0)"
   y="-25.851469"
   x="-31.615067" /><rect
   style="fill:#ffffff"
   id="rect111"
   height="8.0010004"
   width="0"
   y="35.354"
   x="43.073303" /><rect
   style="fill:#cccccc"
   id="rect113"
   height="8.0007391"
   width="9.9996729"
   transform="matrix(-0.99993271,0.01160038,-0.01160038,-0.99993271,0,0)"
   y="-43.852695"
   x="-42.615803" /><rect
   style="fill:#ffffff"
   id="rect115"
   height="8.0010004"
   width="0"
   y="26.355"
   x="42.969303" /><rect
   style="fill:#ffffff"
   id="rect117"
   height="8.0007296"
   width="10.000662"
   transform="matrix(-0.99993387,0.01150039,-0.01150039,-0.99993387,0,0)"
   y="-34.848"
   x="-42.619217" /><rect
   style="fill:#ffffff"
   id="rect119"
   height="8"
   width="0"
   y="17.356001"
   x="42.865303" /><rect
   style="fill:#cccccc"
   id="rect121"
   height="7.9997382"
   width="9.9996729"
   transform="matrix(-0.99993271,0.01160038,-0.01160038,-0.99993271,0,0)"
   y="-25.852463"
   x="-42.61517" />
<text
   xml:space="preserve"
   style="font-style:normal;font-weight:normal;font-size:7.5px;line-height:125%;font-family:'Segoe UI Symbol';-inkscape-font-specification:'Segoe UI Symbol';letter-spacing:0px;word-spacing:0px;fill:#000000;fill-opacity:1;stroke:none;stroke-width:1px;stroke-linecap:butt;stroke-linejoin:miter;stroke-opacity:1"
   x="1.6271191"
   y="29.288137"
   id="text4255"
   sodipodi:linespacing="125%"><tspan
     sodipodi:role="line"
     id="tspan4257"
     x="1.6271191"
     y="29.288137">O</tspan></text>
<text
   xml:space="preserve"
   style="font-style:normal;font-weight:normal;font-size:7.5px;line-height:125%;font-family:'Segoe UI Symbol';-inkscape-font-specification:'Segoe UI Symbol';letter-spacing:0px;word-spacing:0px;fill:#000000;fill-opacity:1;stroke:none;stroke-width:1px;stroke-linecap:butt;stroke-linejoin:miter;stroke-opacity:1"
   x="2.449429"
   y="37.812172"
   id="text4255-9"
   sodipodi:linespacing="125%"><tspan
     sodipodi:role="line"
     id="tspan4257-5"
     x="2.449429"
     y="37.812172">L</tspan></text>
<path
   style="fill:none;fill-rule:evenodd;stroke:#000000;stroke-width:1px;stroke-linecap:butt;stroke-linejoin:miter;stroke-opacity:1"
   d="M 10.667846,20.135593 42.823679,19.860868"
   id="path4291"
   inkscape:connector-curvature="0"
   sodipodi:nodetypes="cc" /><path
   style="fill:none;fill-rule:evenodd;stroke:#000000;stroke-width:1px;stroke-linecap:butt;stroke-linejoin:miter;stroke-opacity:1"
   d="M 10.753585,23.412088 42.909419,23.137363"
   id="path4291-4"
   inkscape:connector-curvature="0"
   sodipodi:nodetypes="cc" /><path
   style="fill:#999999;fill-rule:evenodd;stroke:#999999;stroke-width:1px;stroke-linecap:butt;stroke-linejoin:miter;stroke-opacity:1"
   d="M 10.80229,28.733547 42.958123,28.458822"
   id="path4291-6"
   inkscape:connector-curvature="0"
   sodipodi:nodetypes="cc" /><path
   style="fill:#999999;fill-rule:evenodd;stroke:#999999;stroke-width:1px;stroke-linecap:butt;stroke-linejoin:miter;stroke-opacity:1"
   d="M 10.888029,32.010042 43.043863,31.735317"
   id="path4291-4-7"
   inkscape:connector-curvature="0"
   sodipodi:nodetypes="cc" /><path
   style="fill:none;fill-rule:evenodd;stroke:#000000;stroke-width:1px;stroke-linecap:butt;stroke-linejoin:miter;stroke-opacity:1"
   d="M 10.893865,37.891057 43.049699,37.616332"
   id="path4291-46"
   inkscape:connector-curvature="0"
   sodipodi:nodetypes="cc" /><path
   style="fill:none;fill-rule:evenodd;stroke:#000000;stroke-width:1px;stroke-linecap:butt;stroke-linejoin:miter;stroke-opacity:1"
   d="M 10.979604,41.167552 43.135439,40.892827"
   id="path4291-4-76"
   inkscape:connector-curvature="0"
   sodipodi:nodetypes="cc" />
<rect style="fill:#00ffc1; fill-opacity:0.7;" x="0" y="42 " width="48" height="6" />
</svg>
