<?xml version="1.0" encoding="UTF-8" standalone="no"?>
<!-- Generator: Adobe Illustrator 13.0.0, SVG Export Plug-In . SVG Version: 6.00 Build 14948)  -->

<svg
   xmlns:dc="http://purl.org/dc/elements/1.1/"
   xmlns:cc="http://creativecommons.org/ns#"
   xmlns:rdf="http://www.w3.org/1999/02/22-rdf-syntax-ns#"
   xmlns:svg="http://www.w3.org/2000/svg"
   xmlns="http://www.w3.org/2000/svg"
   xmlns:sodipodi="http://sodipodi.sourceforge.net/DTD/sodipodi-0.dtd"
   xmlns:inkscape="http://www.inkscape.org/namespaces/inkscape"
   version="1.1"
   id="Layer_1"
   x="0px"
   y="0px"
   width="48px"
   height="48px"
   viewBox="0 0 48 48"
   enable-background="new 0 0 48 48"
   xml:space="preserve"
   inkscape:version="0.91 r13725"
   sodipodi:docname="OWUTTTest.svg"><metadata
   id="metadata31"><rdf:RDF><cc:Work
       rdf:about=""><dc:format>image/svg+xml</dc:format><dc:type
         rdf:resource="http://purl.org/dc/dcmitype/StillImage" /></cc:Work></rdf:RDF></metadata><defs
   id="defs29"><marker
     inkscape:stockid="Arrow1Lend"
     orient="auto"
     refY="0.0"
     refX="0.0"
     id="Arrow1Lend"
     style="overflow:visible;"
     inkscape:isstock="true"><path
       id="path4212"
       d="M 0.0,0.0 L 5.0,-5.0 L -12.5,0.0 L 5.0,5.0 L 0.0,0.0 z "
       style="fill-rule:evenodd;stroke:#000000;stroke-width:1pt;stroke-opacity:1;fill:#000000;fill-opacity:1"
       transform="scale(0.8) rotate(180) translate(12.5,0)" /></marker><marker
     inkscape:stockid="Arrow1Lstart"
     orient="auto"
     refY="0.0"
     refX="0.0"
     id="Arrow1Lstart"
     style="overflow:visible"
     inkscape:isstock="true"><path
       id="path4209"
       d="M 0.0,0.0 L 5.0,-5.0 L -12.5,0.0 L 5.0,5.0 L 0.0,0.0 z "
       style="fill-rule:evenodd;stroke:#000000;stroke-width:1pt;stroke-opacity:1;fill:#000000;fill-opacity:1"
       transform="scale(0.8) translate(12.5,0)" /></marker><inkscape:perspective
     sodipodi:type="inkscape:persp3d"
     inkscape:vp_x="0 : 24 : 1"
     inkscape:vp_y="0 : 1000 : 0"
     inkscape:vp_z="48 : 24 : 1"
     inkscape:persp3d-origin="24 : 16 : 1"
     id="perspective33" /><inkscape:perspective
     id="perspective2872"
     inkscape:persp3d-origin="0.5 : 0.33333333 : 1"
     inkscape:vp_z="1 : 0.5 : 1"
     inkscape:vp_y="0 : 1000 : 0"
     inkscape:vp_x="0 : 0.5 : 1"
     sodipodi:type="inkscape:persp3d" /><inkscape:perspective
     id="perspective2908"
     inkscape:persp3d-origin="0.5 : 0.33333333 : 1"
     inkscape:vp_z="1 : 0.5 : 1"
     inkscape:vp_y="0 : 1000 : 0"
     inkscape:vp_x="0 : 0.5 : 1"
     sodipodi:type="inkscape:persp3d" /><inkscape:perspective
     id="perspective2930"
     inkscape:persp3d-origin="0.5 : 0.33333333 : 1"
     inkscape:vp_z="1 : 0.5 : 1"
     inkscape:vp_y="0 : 1000 : 0"
     inkscape:vp_x="0 : 0.5 : 1"
     sodipodi:type="inkscape:persp3d" /><inkscape:perspective
     id="perspective2956"
     inkscape:persp3d-origin="0.5 : 0.33333333 : 1"
     inkscape:vp_z="1 : 0.5 : 1"
     inkscape:vp_y="0 : 1000 : 0"
     inkscape:vp_x="0 : 0.5 : 1"
     sodipodi:type="inkscape:persp3d" /><inkscape:perspective
     id="perspective2978"
     inkscape:persp3d-origin="0.5 : 0.33333333 : 1"
     inkscape:vp_z="1 : 0.5 : 1"
     inkscape:vp_y="0 : 1000 : 0"
     inkscape:vp_x="0 : 0.5 : 1"
     sodipodi:type="inkscape:persp3d" /><inkscape:perspective
     id="perspective3000"
     inkscape:persp3d-origin="0.5 : 0.33333333 : 1"
     inkscape:vp_z="1 : 0.5 : 1"
     inkscape:vp_y="0 : 1000 : 0"
     inkscape:vp_x="0 : 0.5 : 1"
     sodipodi:type="inkscape:persp3d" /><inkscape:perspective
     id="perspective3022"
     inkscape:persp3d-origin="0.5 : 0.33333333 : 1"
     inkscape:vp_z="1 : 0.5 : 1"
     inkscape:vp_y="0 : 1000 : 0"
     inkscape:vp_x="0 : 0.5 : 1"
     sodipodi:type="inkscape:persp3d" /><inkscape:perspective
     id="perspective3044"
     inkscape:persp3d-origin="0.5 : 0.33333333 : 1"
     inkscape:vp_z="1 : 0.5 : 1"
     inkscape:vp_y="0 : 1000 : 0"
     inkscape:vp_x="0 : 0.5 : 1"
     sodipodi:type="inkscape:persp3d" /><inkscape:perspective
     id="perspective3044-7"
     inkscape:persp3d-origin="0.5 : 0.33333333 : 1"
     inkscape:vp_z="1 : 0.5 : 1"
     inkscape:vp_y="0 : 1000 : 0"
     inkscape:vp_x="0 : 0.5 : 1"
     sodipodi:type="inkscape:persp3d" /><inkscape:perspective
     id="perspective3044-5"
     inkscape:persp3d-origin="0.5 : 0.33333333 : 1"
     inkscape:vp_z="1 : 0.5 : 1"
     inkscape:vp_y="0 : 1000 : 0"
     inkscape:vp_x="0 : 0.5 : 1"
     sodipodi:type="inkscape:persp3d" /><inkscape:perspective
     id="perspective2848"
     inkscape:persp3d-origin="0.5 : 0.33333333 : 1"
     inkscape:vp_z="1 : 0.5 : 1"
     inkscape:vp_y="0 : 1000 : 0"
     inkscape:vp_x="0 : 0.5 : 1"
     sodipodi:type="inkscape:persp3d" /><inkscape:perspective
     id="perspective2884"
     inkscape:persp3d-origin="0.5 : 0.33333333 : 1"
     inkscape:vp_z="1 : 0.5 : 1"
     inkscape:vp_y="0 : 1000 : 0"
     inkscape:vp_x="0 : 0.5 : 1"
     sodipodi:type="inkscape:persp3d" /><inkscape:perspective
     id="perspective2884-0"
     inkscape:persp3d-origin="0.5 : 0.33333333 : 1"
     inkscape:vp_z="1 : 0.5 : 1"
     inkscape:vp_y="0 : 1000 : 0"
     inkscape:vp_x="0 : 0.5 : 1"
     sodipodi:type="inkscape:persp3d" /><inkscape:perspective
     id="perspective2920"
     inkscape:persp3d-origin="0.5 : 0.33333333 : 1"
     inkscape:vp_z="1 : 0.5 : 1"
     inkscape:vp_y="0 : 1000 : 0"
     inkscape:vp_x="0 : 0.5 : 1"
     sodipodi:type="inkscape:persp3d" /><inkscape:perspective
     id="perspective2920-4"
     inkscape:persp3d-origin="0.5 : 0.33333333 : 1"
     inkscape:vp_z="1 : 0.5 : 1"
     inkscape:vp_y="0 : 1000 : 0"
     inkscape:vp_x="0 : 0.5 : 1"
     sodipodi:type="inkscape:persp3d" /><inkscape:perspective
     id="perspective2920-1"
     inkscape:persp3d-origin="0.5 : 0.33333333 : 1"
     inkscape:vp_z="1 : 0.5 : 1"
     inkscape:vp_y="0 : 1000 : 0"
     inkscape:vp_x="0 : 0.5 : 1"
     sodipodi:type="inkscape:persp3d" /><inkscape:perspective
     id="perspective2967"
     inkscape:persp3d-origin="0.5 : 0.33333333 : 1"
     inkscape:vp_z="1 : 0.5 : 1"
     inkscape:vp_y="0 : 1000 : 0"
     inkscape:vp_x="0 : 0.5 : 1"
     sodipodi:type="inkscape:persp3d" /><inkscape:perspective
     id="perspective2967-2"
     inkscape:persp3d-origin="0.5 : 0.33333333 : 1"
     inkscape:vp_z="1 : 0.5 : 1"
     inkscape:vp_y="0 : 1000 : 0"
     inkscape:vp_x="0 : 0.5 : 1"
     sodipodi:type="inkscape:persp3d" /><inkscape:perspective
     id="perspective2967-1"
     inkscape:persp3d-origin="0.5 : 0.33333333 : 1"
     inkscape:vp_z="1 : 0.5 : 1"
     inkscape:vp_y="0 : 1000 : 0"
     inkscape:vp_x="0 : 0.5 : 1"
     sodipodi:type="inkscape:persp3d" /><inkscape:perspective
     id="perspective3014"
     inkscape:persp3d-origin="0.5 : 0.33333333 : 1"
     inkscape:vp_z="1 : 0.5 : 1"
     inkscape:vp_y="0 : 1000 : 0"
     inkscape:vp_x="0 : 0.5 : 1"
     sodipodi:type="inkscape:persp3d" /><inkscape:perspective
     id="perspective3014-2"
     inkscape:persp3d-origin="0.5 : 0.33333333 : 1"
     inkscape:vp_z="1 : 0.5 : 1"
     inkscape:vp_y="0 : 1000 : 0"
     inkscape:vp_x="0 : 0.5 : 1"
     sodipodi:type="inkscape:persp3d" /><inkscape:perspective
     id="perspective3014-8"
     inkscape:persp3d-origin="0.5 : 0.33333333 : 1"
     inkscape:vp_z="1 : 0.5 : 1"
     inkscape:vp_y="0 : 1000 : 0"
     inkscape:vp_x="0 : 0.5 : 1"
     sodipodi:type="inkscape:persp3d" /><inkscape:perspective
     id="perspective2878"
     inkscape:persp3d-origin="0.5 : 0.33333333 : 1"
     inkscape:vp_z="1 : 0.5 : 1"
     inkscape:vp_y="0 : 1000 : 0"
     inkscape:vp_x="0 : 0.5 : 1"
     sodipodi:type="inkscape:persp3d" /><inkscape:perspective
     id="perspective2900"
     inkscape:persp3d-origin="0.5 : 0.33333333 : 1"
     inkscape:vp_z="1 : 0.5 : 1"
     inkscape:vp_y="0 : 1000 : 0"
     inkscape:vp_x="0 : 0.5 : 1"
     sodipodi:type="inkscape:persp3d" /><inkscape:perspective
     id="perspective2949"
     inkscape:persp3d-origin="0.5 : 0.33333333 : 1"
     inkscape:vp_z="1 : 0.5 : 1"
     inkscape:vp_y="0 : 1000 : 0"
     inkscape:vp_x="0 : 0.5 : 1"
     sodipodi:type="inkscape:persp3d" /><inkscape:perspective
     id="perspective2971"
     inkscape:persp3d-origin="0.5 : 0.33333333 : 1"
     inkscape:vp_z="1 : 0.5 : 1"
     inkscape:vp_y="0 : 1000 : 0"
     inkscape:vp_x="0 : 0.5 : 1"
     sodipodi:type="inkscape:persp3d" /><inkscape:perspective
     id="perspective3002"
     inkscape:persp3d-origin="0.5 : 0.33333333 : 1"
     inkscape:vp_z="1 : 0.5 : 1"
     inkscape:vp_y="0 : 1000 : 0"
     inkscape:vp_x="0 : 0.5 : 1"
     sodipodi:type="inkscape:persp3d" /><inkscape:perspective
     id="perspective3027"
     inkscape:persp3d-origin="0.5 : 0.33333333 : 1"
     inkscape:vp_z="1 : 0.5 : 1"
     inkscape:vp_y="0 : 1000 : 0"
     inkscape:vp_x="0 : 0.5 : 1"
     sodipodi:type="inkscape:persp3d" /><inkscape:perspective
     id="perspective3054"
     inkscape:persp3d-origin="0.5 : 0.33333333 : 1"
     inkscape:vp_z="1 : 0.5 : 1"
     inkscape:vp_y="0 : 1000 : 0"
     inkscape:vp_x="0 : 0.5 : 1"
     sodipodi:type="inkscape:persp3d" /><inkscape:perspective
     id="perspective3076"
     inkscape:persp3d-origin="0.5 : 0.33333333 : 1"
     inkscape:vp_z="1 : 0.5 : 1"
     inkscape:vp_y="0 : 1000 : 0"
     inkscape:vp_x="0 : 0.5 : 1"
     sodipodi:type="inkscape:persp3d" /><inkscape:perspective
     id="perspective3098"
     inkscape:persp3d-origin="0.5 : 0.33333333 : 1"
     inkscape:vp_z="1 : 0.5 : 1"
     inkscape:vp_y="0 : 1000 : 0"
     inkscape:vp_x="0 : 0.5 : 1"
     sodipodi:type="inkscape:persp3d" /><inkscape:perspective
     id="perspective3123"
     inkscape:persp3d-origin="0.5 : 0.33333333 : 1"
     inkscape:vp_z="1 : 0.5 : 1"
     inkscape:vp_y="0 : 1000 : 0"
     inkscape:vp_x="0 : 0.5 : 1"
     sodipodi:type="inkscape:persp3d" /><inkscape:perspective
     id="perspective3145"
     inkscape:persp3d-origin="0.5 : 0.33333333 : 1"
     inkscape:vp_z="1 : 0.5 : 1"
     inkscape:vp_y="0 : 1000 : 0"
     inkscape:vp_x="0 : 0.5 : 1"
     sodipodi:type="inkscape:persp3d" /><inkscape:perspective
     id="perspective3167"
     inkscape:persp3d-origin="0.5 : 0.33333333 : 1"
     inkscape:vp_z="1 : 0.5 : 1"
     inkscape:vp_y="0 : 1000 : 0"
     inkscape:vp_x="0 : 0.5 : 1"
     sodipodi:type="inkscape:persp3d" /><inkscape:perspective
     id="perspective3189"
     inkscape:persp3d-origin="0.5 : 0.33333333 : 1"
     inkscape:vp_z="1 : 0.5 : 1"
     inkscape:vp_y="0 : 1000 : 0"
     inkscape:vp_x="0 : 0.5 : 1"
     sodipodi:type="inkscape:persp3d" /><inkscape:perspective
     id="perspective3189-5"
     inkscape:persp3d-origin="0.5 : 0.33333333 : 1"
     inkscape:vp_z="1 : 0.5 : 1"
     inkscape:vp_y="0 : 1000 : 0"
     inkscape:vp_x="0 : 0.5 : 1"
     sodipodi:type="inkscape:persp3d" /><inkscape:perspective
     id="perspective2894"
     inkscape:persp3d-origin="0.5 : 0.33333333 : 1"
     inkscape:vp_z="1 : 0.5 : 1"
     inkscape:vp_y="0 : 1000 : 0"
     inkscape:vp_x="0 : 0.5 : 1"
     sodipodi:type="inkscape:persp3d" /><inkscape:perspective
     id="perspective2919"
     inkscape:persp3d-origin="0.5 : 0.33333333 : 1"
     inkscape:vp_z="1 : 0.5 : 1"
     inkscape:vp_y="0 : 1000 : 0"
     inkscape:vp_x="0 : 0.5 : 1"
     sodipodi:type="inkscape:persp3d" /><inkscape:perspective
     id="perspective2919-9"
     inkscape:persp3d-origin="0.5 : 0.33333333 : 1"
     inkscape:vp_z="1 : 0.5 : 1"
     inkscape:vp_y="0 : 1000 : 0"
     inkscape:vp_x="0 : 0.5 : 1"
     sodipodi:type="inkscape:persp3d" /><inkscape:perspective
     id="perspective2919-2"
     inkscape:persp3d-origin="0.5 : 0.33333333 : 1"
     inkscape:vp_z="1 : 0.5 : 1"
     inkscape:vp_y="0 : 1000 : 0"
     inkscape:vp_x="0 : 0.5 : 1"
     sodipodi:type="inkscape:persp3d" /><inkscape:perspective
     id="perspective2919-1"
     inkscape:persp3d-origin="0.5 : 0.33333333 : 1"
     inkscape:vp_z="1 : 0.5 : 1"
     inkscape:vp_y="0 : 1000 : 0"
     inkscape:vp_x="0 : 0.5 : 1"
     sodipodi:type="inkscape:persp3d" /><inkscape:perspective
     id="perspective2919-15"
     inkscape:persp3d-origin="0.5 : 0.33333333 : 1"
     inkscape:vp_z="1 : 0.5 : 1"
     inkscape:vp_y="0 : 1000 : 0"
     inkscape:vp_x="0 : 0.5 : 1"
     sodipodi:type="inkscape:persp3d" /><inkscape:perspective
     id="perspective2919-6"
     inkscape:persp3d-origin="0.5 : 0.33333333 : 1"
     inkscape:vp_z="1 : 0.5 : 1"
     inkscape:vp_y="0 : 1000 : 0"
     inkscape:vp_x="0 : 0.5 : 1"
     sodipodi:type="inkscape:persp3d" /><inkscape:perspective
     id="perspective2919-23"
     inkscape:persp3d-origin="0.5 : 0.33333333 : 1"
     inkscape:vp_z="1 : 0.5 : 1"
     inkscape:vp_y="0 : 1000 : 0"
     inkscape:vp_x="0 : 0.5 : 1"
     sodipodi:type="inkscape:persp3d" /><inkscape:perspective
     id="perspective2919-8"
     inkscape:persp3d-origin="0.5 : 0.33333333 : 1"
     inkscape:vp_z="1 : 0.5 : 1"
     inkscape:vp_y="0 : 1000 : 0"
     inkscape:vp_x="0 : 0.5 : 1"
     sodipodi:type="inkscape:persp3d" /><inkscape:perspective
     id="perspective2919-18"
     inkscape:persp3d-origin="0.5 : 0.33333333 : 1"
     inkscape:vp_z="1 : 0.5 : 1"
     inkscape:vp_y="0 : 1000 : 0"
     inkscape:vp_x="0 : 0.5 : 1"
     sodipodi:type="inkscape:persp3d" /></defs><sodipodi:namedview
   pagecolor="#ffffff"
   bordercolor="#666666"
   borderopacity="1"
   objecttolerance="10"
   gridtolerance="10"
   guidetolerance="10"
   inkscape:pageopacity="0"
   inkscape:pageshadow="2"
   inkscape:window-width="1595"
   inkscape:window-height="994"
   id="namedview27"
   showgrid="false"
   inkscape:zoom="12"
   inkscape:cx="10.059896"
   inkscape:cy="25.645188"
   inkscape:window-x="17"
   inkscape:window-y="146"
   inkscape:window-maximized="0"
   inkscape:current-layer="Layer_1" />


























<path
   d="m 7.8016359,-5.1444263 0,54.0161253 34.8967271,0 0,-54.0161253 -34.8967271,0 z m 32.9578771,24.0071673 0,0 0,1.500447 0,0 0,12.003583 0,0 0,1.500448 0,0 0,12.003584 0,0 -9.694244,0 -0.968147,0 -9.694245,0 -0.968143,0 -9.6942491,0 0,0 0,-39.0116465 0,0 9.6942491,0 0.968143,0 9.694245,0 0.968147,0 9.694244,0 0,0 0,12.0035845 z"
   id="path3-9-7"
   style="fill:#333333"
   inkscape:connector-curvature="0" />



















































<path
   style="fill:none;fill-rule:evenodd;stroke:#000000;stroke-width:0.4;stroke-linecap:butt;stroke-linejoin:miter;stroke-opacity:1;marker-start:url(#Arrow1Lstart);marker-end:url(#Arrow1Lend);stroke-miterlimit:3.20000005;stroke-dasharray:none"
   d="M 11.333333,16.083333 11.166667,44 l 27.25,0.08333"
   id="path4203"
   inkscape:connector-curvature="0" />


<path
   style="fill:none;fill-rule:evenodd;stroke:#000000;stroke-width:1.45152831px;stroke-linecap:butt;stroke-linejoin:miter;stroke-opacity:1"
   d="m 10.25,41.495494 c 0.722222,0 1.444444,0 2.166667,0 0.138889,0 0.277777,0 0.416666,0 0.02778,0 0.06369,-0.04138 0.08333,0 0.01964,0.04138 -0.01964,0.13419 0,0.175571 0.01964,0.04138 0.05556,0 0.08333,0 0.02778,0 0.05556,0 0.08333,0 0.222223,0 0.444445,0 0.666667,0 0.0198,0 0.314656,-0.01959 0.333333,0 0.03514,0.03702 0.0482,0.138573 0.08333,0.17557 0.02536,0.02672 0.21247,0 0.25,0 0.222222,0 0.444444,0 0.666666,0 0.02021,0 0.24732,0.0057 0.25,0 0.01964,-0.04138 -0.01964,-0.13419 0,-0.17557 0.01964,-0.04138 0.05556,0 0.08333,0 0.138889,0 0.277777,0 0.416666,0 0.25,0 0.5,0 0.75,0 0.02778,0 0.05556,0 0.08333,0 0.02778,0 0.06369,0.04138 0.08333,0 0.01964,-0.04138 -0.01964,-0.134191 0,-0.175571 0.0228,-0.04804 0.288126,0.04762 0.333333,0 0.03514,-0.03702 0.0482,-0.138573 0.08333,-0.175571 0.03014,-0.03175 0.358705,0 0.416666,0 0.02778,0 0.06369,0.04138 0.08333,0 0.01964,-0.04138 -0.01964,-0.134191 0,-0.175571 0.01964,-0.04138 0.05555,0 0.08333,0 0.138889,0 0.277778,0 0.416667,0 0.0306,0 0.32998,0.0072 0.333333,0 0.01964,-0.04138 0,-0.117061 0,-0.175571 0.02778,-0.05853 0.05065,-0.12966 0.08333,-0.175571 0.05168,-0.07258 0.107741,-0.13419 0.166667,-0.17557 0.02635,-0.01854 0.06369,0.04138 0.08333,0 0.01964,-0.04138 -0.01964,-0.134191 0,-0.175571 0.01964,-0.04138 0.05849,0.02617 0.08333,0 0.03514,-0.03702 0.0482,-0.138573 0.08333,-0.175571 0.02484,-0.02617 0.06369,0.04138 0.08333,0 0.01964,-0.04138 -0.01964,-0.134191 0,-0.175571 0.01704,-0.0359 0.216959,0.03481 0.25,0 0.346814,-0.365357 -0.08909,0.01222 0.08333,-0.351156 0.04167,-0.0878 0.208333,0.0878 0.25,0 0.03928,-0.08276 -0.02485,-0.246461 0,-0.351157 0.08179,-0.344667 0.158366,-0.07905 0.25,-0.175571 0.03514,-0.03702 0.0482,-0.138552 0.08333,-0.17557 0.02484,-0.02617 0.06369,0.04138 0.08333,0 0.01964,-0.04138 -0.01964,-0.134191 0,-0.175571 0.01964,-0.04138 0.05849,0.02617 0.08333,0 0.276382,-0.582319 -0.07857,0.08276 0.166666,-0.175571 0.1,-0.105347 0.15,-0.421387 0.25,-0.526734 0.06667,-0.07022 0.183334,0.07022 0.25,0 0.346814,-0.365357 -0.08909,0.01222 0.08333,-0.351156 0.03928,-0.08276 0.116976,0.05236 0.166666,0 0.03514,-0.03702 0.0482,-0.138573 0.08333,-0.175571 0.03304,-0.03481 0.232963,0.0359 0.25,0 0.03928,-0.08276 -0.03928,-0.268388 0,-0.351156 0.02791,-0.0588 0.138759,0.0588 0.166666,0 0.01964,-0.04138 -0.01242,-0.123235 0,-0.175571 0.03514,-0.148054 0.131531,-0.203088 0.166667,-0.351157 0.01242,-0.05236 -0.02484,-0.149402 0,-0.17557 0.04969,-0.05234 0.113962,0.03702 0.166667,0 0.07454,-0.05234 0.09639,-0.277126 0.166666,-0.351157 0.04969,-0.05236 0.127383,0.08276 0.166667,0 0.01964,-0.04138 -0.01242,-0.123234 0,-0.175571 0.276382,-0.582318 -0.03928,0.165542 0.08333,-0.351156 0.01757,-0.07404 0.06576,-0.101554 0.08333,-0.175571 0.01242,-0.05234 -0.01242,-0.123235 0,-0.175571 0.173406,-0.730714 -0.0058,0.187707 0.166666,-0.175571 0.01964,-0.04138 -0.01242,-0.123234 0,-0.175571 0.01757,-0.07404 0.06576,-0.101554 0.08333,-0.17557 0.03333,-0.14047 -0.03333,-0.386273 0,-0.526734 0.05,-0.210693 0.2,-0.31604 0.25,-0.526733 0.02619,-0.110362 -0.02619,-0.591958 0,-0.702313 0.01757,-0.07404 0.06576,-0.101555 0.08333,-0.175571 0.01242,-0.05234 -0.01964,-0.134191 0,-0.175571 0.01964,-0.04138 0.06369,0.04138 0.08333,0 0.01704,-0.0359 -0.01652,-0.457118 0,-0.526734 0.08427,-0.355102 0.19339,-0.0563 0.25,-0.17557 0.03928,-0.08276 -0.03928,-0.268388 0,-0.351155 0.01964,-0.04138 0.06369,0.04138 0.08333,0 0.03928,-0.08276 -0.02485,-0.246463 0,-0.351156 0.05,-0.210694 0.2,-0.31604 0.25,-0.526734 0.0226,-0.09525 -0.0228,-0.654268 0,-0.70231 0.01964,-0.04138 0.06369,0.04138 0.08333,0 0.0034,-0.0072 0,-0.637835 0,-0.702313 0,-0.29263 0,-0.585258 0,-0.877888 0,-0.05853 0,-0.117061 0,-0.175571 0,-0.05853 -0.01242,-0.123235 0,-0.175571 0.01757,-0.07404 0.06576,-0.101554 0.08333,-0.175571 0.02619,-0.110361 -0.02619,-0.591958 0,-0.702313 0.01242,-0.05236 0.06369,0.04138 0.08333,0 0.01964,-0.04138 -0.0088,-0.120053 0,-0.17557 0.01964,-0.124162 0.06369,-0.227004 0.08333,-0.351157 0.0088,-0.05552 -0.01964,-0.13419 0,-0.175571 0.01964,-0.04138 0.07091,0.05234 0.08333,0 0.02485,-0.104693 -0.03082,-0.253763 0,-0.351156 0.03445,-0.108886 0.132213,-0.06668 0.166667,-0.175571 0.06163,-0.194786 -0.04969,-0.492924 0,-0.702311 0.01242,-0.05236 0.06369,0.04138 0.08333,0 0.01964,-0.04138 0,-0.117061 0,-0.17557 0,-0.117062 -0.02484,-0.246461 0,-0.351155 0.01242,-0.05236 0.06369,0.04138 0.08333,0 0.01293,-0.02724 -0.01081,-0.458412 0,-0.526733 0.01976,-0.124364 0.06381,-0.227214 0.08345,-0.351368 0.0088,-0.05552 -0.01242,-0.123234 0,-0.17557 0.01757,-0.07404 0.06576,-0.101555 0.08333,-0.175571 0.02485,-0.104694 -0.03928,-0.268388 0,-0.351154 0.01964,-0.04138 0.06369,0.04138 0.08333,0 0.04167,-0.0878 -0.04167,-0.438947 0,-0.526734 0.01964,-0.04138 0.06369,0.04138 0.08333,0 0.03928,-0.08276 -0.03928,-0.268388 0,-0.351156 0.01964,-0.04138 0.06369,0.04138 0.08333,0 0.04167,-0.0878 -0.04167,-0.438944 0,-0.526734 0.01964,-0.04138 0.06369,0.04138 0.08333,0 0.01964,-0.04138 -0.01964,-0.134191 0,-0.175571 0.01964,-0.04138 0.06369,0.04138 0.08333,0 0.01964,-0.04138 -0.01964,-0.134191 0,-0.175571 0.111111,-0.234103 0.08333,0.29263 0.08333,-0.175571 0,-0.05853 0,-0.117061 0,-0.17557 0,-0.05853 -0.01964,-0.134191 0,-0.175571 0.01964,-0.04138 0.06369,0.04138 0.08333,0 0.04167,-0.0878 -0.04167,-0.438944 0,-0.526734 0.01964,-0.04138 0.06369,0.04138 0.08333,0 0.03928,-0.08276 -0.02484,-0.246461 0,-0.351154 0.01757,-0.07404 0.06576,-0.101554 0.08333,-0.175571 0.01242,-0.05236 -0.01964,-0.134191 0,-0.175571 0.01964,-0.04138 0.06369,0.04138 0.08333,0 0.01964,-0.04138 -0.01964,-0.13419 0,-0.175571 0.01964,-0.04138 0.06369,0.04138 0.08333,0 0.02778,-0.05853 -0.02778,-0.29263 0,-0.351156 0.01964,-0.04138 0.06369,0.04138 0.08333,0 0.01964,-0.04138 -0.01964,-0.134191 0,-0.175571 0.01964,-0.04138 0.05849,0.02617 0.08333,0 0.184254,-0.194112 0.02586,-0.108971 0.08333,-0.351156 0.08427,-0.355103 0.193389,-0.0563 0.25,-0.175571 0.01964,-0.04138 -0.01964,-0.134191 0,-0.175571 0.01964,-0.04138 0.05556,0 0.08333,0 0.02778,0 0.05556,0 0.08333,0 0.02778,0 0.06369,0.04138 0.08333,0 0.01964,-0.04138 -0.01964,-0.134191 0,-0.175571 0.0083,-0.01749 0.241667,-0.01749 0.25,0 0.01964,0.04138 -0.01964,0.134191 0,0.175571 0.01964,0.04138 0.05849,-0.02617 0.08333,0 0.03514,0.03702 0.0482,0.138552 0.08333,0.175571 0.04969,0.05234 0.116976,-0.05236 0.166666,0 0.03514,0.03702 0.111111,0.11704 0.08333,0.175571 -0.03191,0.06723 -0.269225,-0.742817 0.08333,0 0.01964,0.04138 -0.01964,0.13419 0,0.175571 0.01964,0.04138 0.06369,-0.04138 0.08333,0 0.03928,0.08276 -0.03928,0.268387 0,0.351156 0.02778,0.05853 0.138889,-0.05853 0.166667,0 0.01704,0.0359 -0.01652,0.457118 0,0.526734 0.03514,0.148054 0.13153,0.203087 0.166667,0.351156 0.01652,0.06961 -0.01704,0.490838 0,0.526734 C 27.527778,20.835833 27.5,20.3091 27.5,20.777307 c 0,0.04258 -0.0027,0.521087 0,0.526734 0.01964,0.04138 0.06369,-0.04138 0.08333,0 0.03928,0.08276 -0.02484,0.24646 0,0.351156 0.01757,0.07404 0.07091,0.09707 0.08333,0.175571 0.0069,0.04376 -0.0086,0.859802 0,0.87789 0.01964,0.04138 0.06369,-0.04138 0.08333,0 0.02925,0.06163 -0.02878,0.756611 0,0.877888 0.01757,0.07404 0.06576,0.101554 0.08333,0.175571 0.02485,0.104693 -0.02484,0.24646 0,0.351154 0.01757,0.07404 0.06576,0.101554 0.08333,0.175571 0.01242,0.05236 0,0.117061 0,0.175571 0,0.05853 0,0.117061 0,0.17557 0,0.29263 0,0.58526 0,0.87789 0,0.05853 0,0.117062 0,0.175571 0,0.05853 -0.01964,0.134191 0,0.175571 0.01964,0.04138 0.06369,-0.04138 0.08333,0 0.02005,0.04224 -0.02005,0.66006 0,0.702311 0.01964,0.04138 0.06369,-0.04138 0.08333,0 0.03928,0.08276 -0.02484,0.246461 0,0.351156 0.01757,0.07404 0.06576,0.101554 0.08333,0.175571 0.0226,0.09525 -0.0228,0.654269 0,0.702311 0.01964,0.04138 0.07091,-0.05236 0.08333,0 0.02484,0.104693 -0.01757,0.24011 0,0.351156 0.02484,0.157051 0.13153,0.203088 0.166667,0.351157 0.0226,0.09525 -0.0228,0.654268 0,0.70231 0.01964,0.04138 0.06369,-0.04138 0.08333,0 0.01964,0.04138 -0.01242,0.123235 0,0.175571 0.01757,0.07404 0.06576,0.101554 0.08333,0.175571 0.02485,0.104694 -0.03928,0.268388 0,0.351154 0.01964,0.04138 0.06369,-0.04138 0.08333,0 0.03928,0.08276 -0.02485,0.246463 0,0.351157 0.01757,0.07404 0.0482,0.138552 0.08333,0.175571 0.02484,0.02617 0.07091,-0.05236 0.08333,0 0.0242,0.101954 -0.02456,0.949968 0,1.053467 0.01757,0.07404 0.06576,0.101554 0.08333,0.175571 0.01242,0.05236 -0.01964,0.13419 0,0.17557 0.01964,0.04138 0.06369,-0.04138 0.08333,0 0.04167,0.0878 -0.04167,0.438944 0,0.526734 0.01964,0.04138 0.06369,-0.04138 0.08333,0 0.03928,0.08276 -0.03928,0.268388 0,0.351156 0.01964,0.04138 0.06369,-0.04138 0.08333,0 0.03928,0.08276 -0.03928,0.268388 0,0.351155 0.172419,0.363277 -0.0067,-0.555135 0.166666,0.175571 0.01242,0.05236 0,0.117061 0,0.17557 0.02778,0.05853 0.06576,0.101555 0.08333,0.175571 0.01242,0.05236 -0.01964,0.134191 0,0.175571 0.01964,0.04138 0.05849,-0.02617 0.08333,0 0.07027,0.07404 0.09639,0.277125 0.166667,0.351154 0.02484,0.02617 0.06369,-0.04138 0.08333,0 0.03928,0.08276 -0.03928,0.268388 0,0.351157 0.01964,0.04138 0.05849,-0.02617 0.08333,0 0.03514,0.03702 0.0482,0.138552 0.08333,0.175571 0.02484,0.02617 0.06369,-0.04138 0.08333,0 0.03928,0.08276 -0.03928,0.268387 0,0.351156 0.03928,0.08276 0.127383,-0.08276 0.166667,0 0.01964,0.04138 -0.01242,0.123235 0,0.175571 0.01757,0.07404 0.06576,0.101554 0.08333,0.175571 0.01242,0.05236 -0.01964,0.13419 0,0.175571 0.02005,0.04224 0.313281,-0.04224 0.333333,0 0.01964,0.04138 -0.01964,0.13419 0,0.17557 0.01964,0.04138 0.06369,-0.04138 0.08333,0 0.01964,0.04138 -0.01964,0.134191 0,0.175571 0.325228,0.685234 0.04475,-0.04064 0.25,0.175571 0.184254,0.194112 0.02586,0.108971 0.08333,0.351157 0.09213,0.388211 0.05172,0.05448 0.166667,0.17557 0.346813,0.365358 -0.08909,-0.01222 0.08333,0.351157 0.01964,0.04138 0.05849,-0.02617 0.08333,0 0.03514,0.03702 0.0482,0.138573 0.08333,0.175571 0.03304,0.03481 0.232963,-0.0359 0.25,0 0.01964,0.04138 -0.01964,0.13419 0,0.175571 0.03928,0.08276 0.127383,-0.08276 0.166666,0 0.01964,0.04138 -0.01964,0.13419 0,0.17557 0.325228,0.685234 0.04475,-0.04064 0.25,0.175571 0.07027,0.07404 0.09639,0.277125 0.166667,0.351157 0.02484,0.02617 0.05849,-0.02617 0.08333,0 0.03514,0.03702 0.0482,0.138573 0.08333,0.17557 0.03014,0.03175 0.358705,0 0.416666,0 0.02778,0 0.06369,-0.04138 0.08333,0 0.01964,0.04138 -0.01964,0.134191 0,0.175571 0.103618,0.218319 0.209528,0.175571 0.333333,0.175571 0.02778,0 0.05698,-0.01854 0.08333,0 0.117851,0.08276 0.222223,0.234104 0.333334,0.351154 0.05556,0.05853 0.122746,0.08303 0.166666,0.175571 0.01964,0.04138 0,0.117062 0,0.175571 0.05556,0.05853 0.107741,0.134191 0.166667,0.175571 0.07205,0.05061 0.36364,-0.05585 0.416667,0 0.03514,0.03702 0.0482,0.138552 0.08333,0.175571 0.07857,0.08276 0.168442,0.106842 0.25,0.175571 0.05767,0.04861 0.107741,0.13419 0.166667,0.17557 0.02635,0.01854 0.05698,-0.01854 0.08333,0 0.05893,0.04138 0.106408,0.143841 0.166667,0.175571 0.0539,0.02838 0.113962,-0.03702 0.166666,0 0.181543,-0.06563 0.02778,0.29263 0.08333,0.351155 0.04969,0.05236 0.11277,-0.02838 0.166666,0 0.06026,0.03173 0.107741,0.13419 0.166667,0.17557 0.03243,0.02278 0.237068,-0.02724 0.25,0 0.01964,0.04138 -0.01964,0.134191 0,0.175571 0.01964,0.04138 0.05556,0 0.08333,0 0.05556,0 0.116977,-0.05234 0.166667,0 0.02484,0.02617 -0.01964,0.134191 0,0.175571 0.01964,0.04138 0.05698,-0.01854 0.08333,0 0.05893,0.04138 0.107741,0.134191 0.166667,0.175571 0.075,0.05267 0.175,-0.05267 0.25,0 0.03727,0.02617 0.0482,0.138573 0.08333,0.175571 0.02485,0.02617 0.05698,-0.01854 0.08333,0 0.05893,0.04138 0.107741,0.13419 0.166666,0.175571 0.02635,0.01854 0.06369,-0.04138 0.08333,0 0.01964,0.04138 -0.01964,0.13419 0,0.17557 0.0228,0.04804 0.288126,-0.04762 0.333333,0 0.03514,0.03702 0.0482,0.138574 0.08333,0.175571 0.02534,0.0267 0.27579,0 0.333334,0 0.222222,0 0.444444,0 0.666666,0 0.194445,0 0.388889,0 0.583334,0 0.02778,0 0.06369,-0.04138 0.08333,0 0.01964,0.04138 -0.01964,0.134191 0,0.175571 0.01964,0.04138 0.05556,0 0.08333,0 0.166667,0 0.333334,0 0.5,0"
   id="path4236"
   inkscape:connector-curvature="0" /><path
   style="fill:none;fill-rule:evenodd;stroke:#000000;stroke-width:1.5590291px;stroke-linecap:butt;stroke-linejoin:miter;stroke-opacity:1"
   d="m 10.5,37.633067 c 0.138889,0 0.277778,0 0.416667,0 0.108512,0 0.416486,-0.04059 0.5,0 0.06091,0.02961 0.106408,0.165935 0.166666,0.20254 0.07555,0.04591 0.319861,0 0.416667,0 0.305556,0 0.611111,0 0.916667,0 0.05796,0 0.38653,-0.03663 0.416666,0 0.03514,0.0427 0.0482,0.159859 0.08333,0.202539 0.02155,0.02618 0.440933,0 0.5,0 0.02778,0 0.06369,-0.04774 0.08333,0 0.01964,0.04774 -0.01964,0.154804 0,0.20254 0.0027,0.0066 0.229789,0 0.25,0 0.361111,0 0.722222,0 1.083333,0 0.05796,0 0.386531,0.03663 0.416667,0 0.07027,-0.08541 0.09639,-0.319693 0.166667,-0.405094 0.02536,-0.03082 0.21247,0 0.25,0 0.277777,0 0.555555,0 0.833333,0 0.0198,0 0.314656,0.0226 0.333333,0 0.03514,-0.0427 0.0482,-0.159834 0.08333,-0.202539 0.03304,-0.04015 0.232963,0.04142 0.25,0 0.01964,-0.04774 -0.01964,-0.154803 0,-0.20254 0.01964,-0.04774 0.05555,0 0.08333,0 0.138889,0 0.277778,0 0.416667,0 0.02778,0 0.06369,0.04774 0.08333,0 0.01964,-0.04774 -0.01964,-0.154803 0,-0.202539 0.01964,-0.04774 0.06369,0.04774 0.08333,0 0.01964,-0.04774 -0.01964,-0.154804 0,-0.20254 0.02778,-0.06752 0.138889,0.06752 0.166667,0 0.01964,-0.04774 -0.01964,-0.154803 0,-0.20254 0.04167,-0.101281 0.208333,0.101282 0.25,0 0.17242,-0.419079 -0.26348,0.01629 0.08333,-0.405096 0.04969,-0.0604 0.127383,0.09547 0.166667,0 0.01964,-0.04774 -0.01964,-0.154803 0,-0.202539 0.01964,-0.04774 0.05849,0.03019 0.08333,0 0.07027,-0.08541 0.09639,-0.319693 0.166667,-0.405096 0.04969,-0.0604 0.116976,0.0604 0.166667,0 0.03514,-0.04271 0.0482,-0.159859 0.08333,-0.20254 0.07454,-0.09059 0.175464,0.09059 0.25,0 0.02484,-0.03019 -0.01242,-0.142164 0,-0.202539 0.01757,-0.08541 0.06576,-0.117154 0.08333,-0.20254 0.01242,-0.0604 -0.01964,-0.154803 0,-0.20254 0.02005,-0.04873 0.313281,0.04873 0.333334,0 0.01964,-0.04774 0,-0.135042 0,-0.202539 0.02778,0 0.06369,0.04774 0.08333,0 0.01964,-0.04774 -0.01964,-0.154803 0,-0.20254 0.03928,-0.09547 0.127383,0.09547 0.166667,0 0.01964,-0.04774 -0.01964,-0.154803 0,-0.202539 0.03928,-0.09547 0.127383,0.09547 0.166666,0 0.01964,-0.04774 -0.01964,-0.154803 0,-0.20254 0.04167,-0.101282 0.208334,0.101282 0.25,0 0.01964,-0.04774 -0.01964,-0.154803 0,-0.202539 0.01704,-0.04142 0.216959,0.04015 0.25,0 0.03514,-0.04271 0.0482,-0.159859 0.08333,-0.20254 0.205246,-0.249433 -0.07523,0.587943 0.25,-0.20254 0.01964,-0.04774 -0.01964,-0.154803 0,-0.202539 0.01964,-0.04774 0.05555,0 0.08333,0 0.03294,0 0.381076,0.04324 0.416667,0 0.03514,-0.04271 0.0482,-0.159859 0.08333,-0.20254 0.03304,-0.04015 0.232964,0.04142 0.25,0 0.01964,-0.04774 -0.01964,-0.154803 0,-0.202539 0.0228,-0.05542 0.288126,0.05493 0.333333,0 0.03514,-0.0427 0.0482,-0.159835 0.08333,-0.20254 0.04521,-0.05493 0.310531,0.05542 0.333333,0 0.01964,-0.04774 -0.01964,-0.154803 0,-0.202539 0.0228,-0.05542 0.288126,0.05493 0.333333,0 0.03514,-0.0427 0.0482,-0.159835 0.08333,-0.20254 0.03304,-0.04015 0.232963,0.04142 0.25,0 0.01964,-0.04774 -0.01964,-0.154803 0,-0.202539 0.04167,-0.101282 0.208333,0.101282 0.25,0 0.01964,-0.04774 -0.01964,-0.154804 0,-0.20254 0.03928,-0.09547 0.116976,0.06038 0.166666,0 0.03514,-0.04271 0.0482,-0.159834 0.08333,-0.20254 0.02191,-0.02664 0.289756,0 0.333333,0 0.222222,0 0.444444,0 0.666667,0 0.03929,0 0.41289,0.0092 0.416666,0 0.01964,-0.04774 -0.01964,-0.154803 0,-0.202539 0.0034,-0.0083 0.302731,0 0.333334,0 0.166666,0 0.333333,0 0.5,0 0.03753,0 0.224638,-0.03082 0.25,0 0.03514,0.04271 0.0482,0.159834 0.08333,0.202539 0.02484,0.03019 0.05556,0 0.08333,0 0.02778,0 0.05556,0 0.08333,0 0.138889,0 0.277777,0 0.416666,0 0.527778,0 1.055556,0 1.583334,0 0.222222,0 0.444444,0 0.666666,0 0.02778,0 0.06369,-0.04774 0.08333,0 0.01964,0.04774 -0.01964,0.154804 0,0.20254 0.01964,0.04774 0.05555,0 0.08333,0 0.166667,0 0.333333,0 0.5,0 0.02778,0 0.05556,0 0.08333,0 0.02778,0 0.06369,-0.04774 0.08333,0 0.01964,0.04774 -0.01964,0.154803 0,0.20254 0.01964,0.04774 0.05698,-0.02139 0.08333,0 0.05893,0.04774 0.10576,0.172935 0.166667,0.202539 0.08171,0.03972 0.175464,-0.09059 0.25,0 0.05555,0.06752 0.02778,0.33758 0.08333,0.405094 0.0179,0.02163 0.513376,0 0.583333,0 0.05556,0 0.111111,0 0.166667,0 0.02778,0 0.05849,-0.03019 0.08333,0 0.03514,0.0427 0.04607,0.172352 0.08333,0.202539 0.05669,0.04594 0.37248,-0.05369 0.416666,0 0.03514,0.04271 0.0482,0.159859 0.08333,0.20254 0.06667,0.08101 0.183333,-0.08101 0.25,0 0.03514,0.0427 0.0482,0.159834 0.08333,0.20254 0.02484,0.03019 0.05556,0 0.08333,0 0.02778,0 0.05556,0 0.08333,0 0.111111,0 0.222222,0 0.333333,0 0.02778,0 0.05556,0 0.08333,0 0.02778,0 0.06369,-0.04774 0.08333,0 0.01964,0.04774 -0.01964,0.154803 0,0.202539 0.03928,0.09547 0.116976,-0.0604 0.166666,0 0.346814,0.421476 -0.08909,-0.0141 0.08333,0.405094 0.04167,0.101282 0.208333,-0.101282 0.25,0 0.01964,0.04774 -0.01964,0.154803 0,0.202539 0.02778,0.06752 0.138889,-0.06752 0.166666,0 0.01964,0.04774 -0.01964,0.154803 0,0.20254 0.01964,0.04774 0.05849,-0.03019 0.08333,0 0.03514,0.0427 0.0482,0.159834 0.08333,0.202539 0.04444,0.05401 0.122222,-0.05401 0.166667,0 0.03514,0.04271 0.0482,0.159835 0.08333,0.20254 0.04969,0.0604 0.116976,-0.0604 0.166667,0 0.03514,0.0427 0.0482,0.159859 0.08333,0.20254 0.03708,0.04506 0.295218,-0.03087 0.333333,0 0.03727,0.03019 0.0482,0.159834 0.08333,0.202539 0.02485,0.03019 0.05849,-0.03019 0.08333,0 0.03514,0.0427 0.0482,0.159835 0.08333,0.20254 0.02485,0.03019 0.05849,-0.03019 0.08333,0 0.03514,0.0427 0.0482,0.159858 0.08333,0.202539 0.04969,0.06038 0.127383,-0.09547 0.166667,0 0.01964,0.04774 -0.01964,0.154803 0,0.20254 0.01964,0.04774 0.05849,-0.03019 0.08333,0 0.03514,0.0427 0.05065,0.149577 0.08333,0.202539 0.05556,0.06752 0.111111,0.135043 0.166667,0.20254 0.02778,0 0.05849,-0.03019 0.08333,0 0.07027,0.08541 0.09639,0.319693 0.166667,0.405096 0.02484,0.03019 0.06369,-0.04774 0.08333,0 0.01964,0.04774 -0.01964,0.154803 0,0.20254 4.43e-4,0.0011 0.247215,-0.0017 0.25,0 0.06026,0.0366 0.107741,0.154803 0.166667,0.202539 0.02635,0.02139 0.06369,-0.04774 0.08333,0 0.03928,0.09547 -0.03928,0.309614 0,0.405096 0.03928,0.09547 0.113962,-0.04271 0.166667,0 0.05893,0.04774 0.107741,0.154803 0.166667,0.20254 0.0527,0.0427 0.127383,-0.09547 0.166666,0 0,0.540129 -0.02778,-0.06752 0.08333,0.202539 0.01964,0.04774 -0.01964,0.154804 0,0.20254 7.9e-5,1.94e-4 0.249622,-3.06e-4 0.25,0 0.03727,0.03019 0.0482,0.159834 0.08333,0.20254 0.0506,0.06149 0.449398,-0.06149 0.5,0 0.03514,0.0427 0.0482,0.159834 0.08333,0.202539 0.02536,0.03082 0.212471,0 0.25,0 0.194445,0 0.388889,0 0.583334,0 0.444444,0 0.888889,0 1.333333,0"
   id="path4238"
   inkscape:connector-curvature="0" /><text
   xml:space="preserve"
   style="font-style:normal;font-weight:normal;font-size:10.25037861px;line-height:125%;font-family:'Segoe UI Symbol';-inkscape-font-specification:'Segoe UI Symbol';letter-spacing:0px;word-spacing:0px;fill:#000000;fill-opacity:1;stroke:none;stroke-width:1px;stroke-linecap:butt;stroke-linejoin:miter;stroke-opacity:1"
   x="11.987754"
   y="15.007814"
   id="text4240"
   sodipodi:linespacing="125%"
   transform="scale(0.94564999,1.0574737)"><tspan
     sodipodi:role="line"
     id="tspan4242"
     x="11.987754"
     y="15.007814">T-test</tspan></text>

<rect style="fill:#00ff5e; fill-opacity:0.7;" x="0" y="42 " width="48" height="6" />
</svg>
